<?xml version='1.0' encoding='utf-8'?>
<svg xmlns:xlink="http://www.w3.org/1999/xlink" xmlns="http://www.w3.org/2000/svg" id="chart-dfb2e5d1-d24e-42f0-aeae-6443936e0cbe" class="pygal-chart" viewBox="0 0 1200 600"><!--Generated with pygal 3.0.1 (lxml) ©Kozea 2012-2016 on 2024-04-07--><!--http://pygal.org--><!--http://github.com/Kozea/pygal--><defs><style type="text/css">#chart-dfb2e5d1-d24e-42f0-aeae-6443936e0cbe{-webkit-user-select:none;-webkit-font-smoothing:antialiased;font-family:Roboto,Helvetica,Arial,sans-serif}#chart-dfb2e5d1-d24e-42f0-aeae-6443936e0cbe .title{font-family:Roboto,Helvetica,Arial,sans-serif;font-size:16px}#chart-dfb2e5d1-d24e-42f0-aeae-6443936e0cbe .legends .legend text{font-family:Roboto,Helvetica,Arial,sans-serif;font-size:14px}#chart-dfb2e5d1-d24e-42f0-aeae-6443936e0cbe .axis text{font-family:Roboto,Helvetica,Arial,sans-serif;font-size:14px}#chart-dfb2e5d1-d24e-42f0-aeae-6443936e0cbe .axis text.major{font-family:Roboto,Helvetica,Arial,sans-serif;font-size:10px}#chart-dfb2e5d1-d24e-42f0-aeae-6443936e0cbe .text-overlay text.value{font-family:Roboto,Helvetica,Arial,sans-serif;font-size:16px}#chart-dfb2e5d1-d24e-42f0-aeae-6443936e0cbe .text-overlay text.label{font-family:Roboto,Helvetica,Arial,sans-serif;font-size:10px}#chart-dfb2e5d1-d24e-42f0-aeae-6443936e0cbe .tooltip{font-family:Roboto,Helvetica,Arial,sans-serif;font-size:14px}#chart-dfb2e5d1-d24e-42f0-aeae-6443936e0cbe text.no_data{font-family:Roboto,Helvetica,Arial,sans-serif;font-size:64px}
#chart-dfb2e5d1-d24e-42f0-aeae-6443936e0cbe{background-color:transparent}#chart-dfb2e5d1-d24e-42f0-aeae-6443936e0cbe path,#chart-dfb2e5d1-d24e-42f0-aeae-6443936e0cbe line,#chart-dfb2e5d1-d24e-42f0-aeae-6443936e0cbe rect,#chart-dfb2e5d1-d24e-42f0-aeae-6443936e0cbe circle{-webkit-transition:150ms;-moz-transition:150ms;transition:150ms}#chart-dfb2e5d1-d24e-42f0-aeae-6443936e0cbe .graph &gt; .background{fill:transparent}#chart-dfb2e5d1-d24e-42f0-aeae-6443936e0cbe .plot &gt; .background{fill:rgba(255,255,255,1)}#chart-dfb2e5d1-d24e-42f0-aeae-6443936e0cbe .graph{fill:rgba(0,0,0,.87)}#chart-dfb2e5d1-d24e-42f0-aeae-6443936e0cbe text.no_data{fill:rgba(0,0,0,1)}#chart-dfb2e5d1-d24e-42f0-aeae-6443936e0cbe .title{fill:rgba(0,0,0,1)}#chart-dfb2e5d1-d24e-42f0-aeae-6443936e0cbe .legends .legend text{fill:rgba(0,0,0,.87)}#chart-dfb2e5d1-d24e-42f0-aeae-6443936e0cbe .legends .legend:hover text{fill:rgba(0,0,0,1)}#chart-dfb2e5d1-d24e-42f0-aeae-6443936e0cbe .axis .line{stroke:rgba(0,0,0,1)}#chart-dfb2e5d1-d24e-42f0-aeae-6443936e0cbe .axis .guide.line{stroke:rgba(0,0,0,.54)}#chart-dfb2e5d1-d24e-42f0-aeae-6443936e0cbe .axis .major.line{stroke:rgba(0,0,0,.87)}#chart-dfb2e5d1-d24e-42f0-aeae-6443936e0cbe .axis text.major{fill:rgba(0,0,0,1)}#chart-dfb2e5d1-d24e-42f0-aeae-6443936e0cbe .axis.y .guides:hover .guide.line,#chart-dfb2e5d1-d24e-42f0-aeae-6443936e0cbe .line-graph .axis.x .guides:hover .guide.line,#chart-dfb2e5d1-d24e-42f0-aeae-6443936e0cbe .stackedline-graph .axis.x .guides:hover .guide.line,#chart-dfb2e5d1-d24e-42f0-aeae-6443936e0cbe .xy-graph .axis.x .guides:hover .guide.line{stroke:rgba(0,0,0,1)}#chart-dfb2e5d1-d24e-42f0-aeae-6443936e0cbe .axis .guides:hover text{fill:rgba(0,0,0,1)}#chart-dfb2e5d1-d24e-42f0-aeae-6443936e0cbe .reactive{fill-opacity:.7;stroke-opacity:.8;stroke-width:1}#chart-dfb2e5d1-d24e-42f0-aeae-6443936e0cbe .ci{stroke:rgba(0,0,0,.87)}#chart-dfb2e5d1-d24e-42f0-aeae-6443936e0cbe .reactive.active,#chart-dfb2e5d1-d24e-42f0-aeae-6443936e0cbe .active .reactive{fill-opacity:.8;stroke-opacity:.9;stroke-width:4}#chart-dfb2e5d1-d24e-42f0-aeae-6443936e0cbe .ci .reactive.active{stroke-width:1.5}#chart-dfb2e5d1-d24e-42f0-aeae-6443936e0cbe .series text{fill:rgba(0,0,0,1)}#chart-dfb2e5d1-d24e-42f0-aeae-6443936e0cbe .tooltip rect{fill:rgba(255,255,255,1);stroke:rgba(0,0,0,1);-webkit-transition:opacity 150ms;-moz-transition:opacity 150ms;transition:opacity 150ms}#chart-dfb2e5d1-d24e-42f0-aeae-6443936e0cbe .tooltip .label{fill:rgba(0,0,0,.87)}#chart-dfb2e5d1-d24e-42f0-aeae-6443936e0cbe .tooltip .label{fill:rgba(0,0,0,.87)}#chart-dfb2e5d1-d24e-42f0-aeae-6443936e0cbe .tooltip .legend{font-size:.8em;fill:rgba(0,0,0,.54)}#chart-dfb2e5d1-d24e-42f0-aeae-6443936e0cbe .tooltip .x_label{font-size:.6em;fill:rgba(0,0,0,1)}#chart-dfb2e5d1-d24e-42f0-aeae-6443936e0cbe .tooltip .xlink{font-size:.5em;text-decoration:underline}#chart-dfb2e5d1-d24e-42f0-aeae-6443936e0cbe .tooltip .value{font-size:1.5em}#chart-dfb2e5d1-d24e-42f0-aeae-6443936e0cbe .bound{font-size:.5em}#chart-dfb2e5d1-d24e-42f0-aeae-6443936e0cbe .max-value{font-size:.75em;fill:rgba(0,0,0,.54)}#chart-dfb2e5d1-d24e-42f0-aeae-6443936e0cbe .map-element{fill:rgba(255,255,255,1);stroke:rgba(0,0,0,.54) !important}#chart-dfb2e5d1-d24e-42f0-aeae-6443936e0cbe .map-element .reactive{fill-opacity:inherit;stroke-opacity:inherit}#chart-dfb2e5d1-d24e-42f0-aeae-6443936e0cbe .color-0,#chart-dfb2e5d1-d24e-42f0-aeae-6443936e0cbe .color-0 a:visited{stroke:#0343df;fill:#0343df}#chart-dfb2e5d1-d24e-42f0-aeae-6443936e0cbe .text-overlay .color-0 text{fill:black}
#chart-dfb2e5d1-d24e-42f0-aeae-6443936e0cbe text.no_data{text-anchor:middle}#chart-dfb2e5d1-d24e-42f0-aeae-6443936e0cbe .guide.line{fill:none}#chart-dfb2e5d1-d24e-42f0-aeae-6443936e0cbe .centered{text-anchor:middle}#chart-dfb2e5d1-d24e-42f0-aeae-6443936e0cbe .title{text-anchor:middle}#chart-dfb2e5d1-d24e-42f0-aeae-6443936e0cbe .legends .legend text{fill-opacity:1}#chart-dfb2e5d1-d24e-42f0-aeae-6443936e0cbe .axis.x text{text-anchor:middle}#chart-dfb2e5d1-d24e-42f0-aeae-6443936e0cbe .axis.x:not(.web) text[transform]{text-anchor:start}#chart-dfb2e5d1-d24e-42f0-aeae-6443936e0cbe .axis.x:not(.web) text[transform].backwards{text-anchor:end}#chart-dfb2e5d1-d24e-42f0-aeae-6443936e0cbe .axis.y text{text-anchor:end}#chart-dfb2e5d1-d24e-42f0-aeae-6443936e0cbe .axis.y text[transform].backwards{text-anchor:start}#chart-dfb2e5d1-d24e-42f0-aeae-6443936e0cbe .axis.y2 text{text-anchor:start}#chart-dfb2e5d1-d24e-42f0-aeae-6443936e0cbe .axis.y2 text[transform].backwards{text-anchor:end}#chart-dfb2e5d1-d24e-42f0-aeae-6443936e0cbe .axis .guide.line{stroke-dasharray:4,4;stroke:black}#chart-dfb2e5d1-d24e-42f0-aeae-6443936e0cbe .axis .major.guide.line{stroke-dasharray:6,6;stroke:black}#chart-dfb2e5d1-d24e-42f0-aeae-6443936e0cbe .horizontal .axis.y .guide.line,#chart-dfb2e5d1-d24e-42f0-aeae-6443936e0cbe .horizontal .axis.y2 .guide.line,#chart-dfb2e5d1-d24e-42f0-aeae-6443936e0cbe .vertical .axis.x .guide.line{opacity:0}#chart-dfb2e5d1-d24e-42f0-aeae-6443936e0cbe .horizontal .axis.always_show .guide.line,#chart-dfb2e5d1-d24e-42f0-aeae-6443936e0cbe .vertical .axis.always_show .guide.line{opacity:1 !important}#chart-dfb2e5d1-d24e-42f0-aeae-6443936e0cbe .axis.y .guides:hover .guide.line,#chart-dfb2e5d1-d24e-42f0-aeae-6443936e0cbe .axis.y2 .guides:hover .guide.line,#chart-dfb2e5d1-d24e-42f0-aeae-6443936e0cbe .axis.x .guides:hover .guide.line{opacity:1}#chart-dfb2e5d1-d24e-42f0-aeae-6443936e0cbe .axis .guides:hover text{opacity:1}#chart-dfb2e5d1-d24e-42f0-aeae-6443936e0cbe .nofill{fill:none}#chart-dfb2e5d1-d24e-42f0-aeae-6443936e0cbe .subtle-fill{fill-opacity:.2}#chart-dfb2e5d1-d24e-42f0-aeae-6443936e0cbe .dot{stroke-width:1px;fill-opacity:1;stroke-opacity:1}#chart-dfb2e5d1-d24e-42f0-aeae-6443936e0cbe .dot.active{stroke-width:5px}#chart-dfb2e5d1-d24e-42f0-aeae-6443936e0cbe .dot.negative{fill:transparent}#chart-dfb2e5d1-d24e-42f0-aeae-6443936e0cbe text,#chart-dfb2e5d1-d24e-42f0-aeae-6443936e0cbe tspan{stroke:none !important}#chart-dfb2e5d1-d24e-42f0-aeae-6443936e0cbe .series text.active{opacity:1}#chart-dfb2e5d1-d24e-42f0-aeae-6443936e0cbe .tooltip rect{fill-opacity:.95;stroke-width:.5}#chart-dfb2e5d1-d24e-42f0-aeae-6443936e0cbe .tooltip text{fill-opacity:1}#chart-dfb2e5d1-d24e-42f0-aeae-6443936e0cbe .showable{visibility:hidden}#chart-dfb2e5d1-d24e-42f0-aeae-6443936e0cbe .showable.shown{visibility:visible}#chart-dfb2e5d1-d24e-42f0-aeae-6443936e0cbe .gauge-background{fill:rgba(229,229,229,1);stroke:none}#chart-dfb2e5d1-d24e-42f0-aeae-6443936e0cbe .bg-lines{stroke:transparent;stroke-width:2px}</style><script type="text/javascript">window.pygal = window.pygal || {};window.pygal.config = window.pygal.config || {};window.pygal.config['dfb2e5d1-d24e-42f0-aeae-6443936e0cbe'] = {"allow_interruptions": false, "box_mode": "extremes", "classes": ["pygal-chart"], "css": ["file://style.css", "file://graph.css"], "defs": [], "disable_xml_declaration": false, "dots_size": 2.5, "dynamic_print_values": false, "explicit_size": false, "fill": false, "force_uri_protocol": "https", "formatter": null, "half_pie": false, "height": 600, "include_x_axis": false, "inner_radius": 0, "interpolate": "cubic", "interpolation_parameters": {}, "interpolation_precision": 250, "inverse_y_axis": false, "js": ["//kozea.github.io/pygal.js/2.0.x/pygal-tooltips.min.js"], "legend_at_bottom": false, "legend_at_bottom_columns": null, "legend_box_size": 12, "logarithmic": false, "margin": 20, "margin_bottom": null, "margin_left": null, "margin_right": null, "margin_top": null, "max_scale": 16, "min_scale": 4, "missing_value_fill_truncation": "x", "no_data_text": "No data", "no_prefix": false, "order_min": null, "pretty_print": false, "print_labels": false, "print_values": false, "print_values_position": "center", "print_zeroes": true, "range": [19.03, 28.96], "rounded_bars": null, "secondary_range": null, "show_dots": true, "show_legend": true, "show_minor_x_labels": true, "show_minor_y_labels": true, "show_only_major_dots": false, "show_x_guides": false, "show_x_labels": true, "show_y_guides": true, "show_y_labels": true, "spacing": 10, "stack_from_top": false, "strict": false, "stroke": true, "stroke_style": null, "style": {"background": "transparent", "ci_colors": [], "colors": ["#0343df", "#e50000", "#929591", "#ffff14"], "dot_opacity": "1", "font_family": "Roboto,Helvetica,Arial,sans-serif", "foreground": "rgba(0, 0, 0, .87)", "foreground_strong": "rgba(0, 0, 0, 1)", "foreground_subtle": "rgba(0, 0, 0, .54)", "guide_stroke_color": "black", "guide_stroke_dasharray": "4,4", "label_font_family": "Roboto,Helvetica,Arial,sans-serif", "label_font_size": 14, "legend_font_family": "Roboto,Helvetica,Arial,sans-serif", "legend_font_size": 14, "major_guide_stroke_color": "black", "major_guide_stroke_dasharray": "6,6", "major_label_font_family": "Roboto,Helvetica,Arial,sans-serif", "major_label_font_size": 10, "no_data_font_family": "Roboto,Helvetica,Arial,sans-serif", "no_data_font_size": 64, "opacity": ".7", "opacity_hover": ".8", "plot_background": "rgba(255, 255, 255, 1)", "stroke_opacity": ".8", "stroke_opacity_hover": ".9", "stroke_width": "1", "stroke_width_hover": "4", "title_font_family": "Roboto,Helvetica,Arial,sans-serif", "title_font_size": 16, "tooltip_font_family": "Roboto,Helvetica,Arial,sans-serif", "tooltip_font_size": 14, "transition": "150ms", "value_background": "rgba(229, 229, 229, 1)", "value_colors": [], "value_font_family": "Roboto,Helvetica,Arial,sans-serif", "value_font_size": 16, "value_label_font_family": "Roboto,Helvetica,Arial,sans-serif", "value_label_font_size": 10}, "title": "Example 1b average daily temperature", "tooltip_border_radius": 0, "tooltip_fancy_mode": true, "truncate_label": null, "truncate_legend": null, "width": 1200, "x_label_rotation": 300, "x_labels": ["2018-03-11", "2018-03-12", "2018-03-13", "2018-03-14", "2018-03-15"], "x_labels_major": null, "x_labels_major_count": null, "x_labels_major_every": null, "x_title": null, "xrange": null, "y_label_rotation": 0, "y_labels": null, "y_labels_major": null, "y_labels_major_count": null, "y_labels_major_every": null, "y_title": null, "zero": 0, "legends": ["Celcius"]}</script><script type="text/javascript" xlink:href="https://kozea.github.io/pygal.js/2.0.x/pygal-tooltips.min.js"/></defs><title>Example 1b average daily temperature</title><g class="graph line-graph vertical"><rect class="background" height="600" width="1200" x="0" y="0"/><g class="plot" transform="translate(127, 46)"><rect class="background" height="451.25386608210715" width="1052.4" x="0" y="0"/><g class="axis y always_show"><path class="line" d="M0.000000 451.253866 h1052.400000"/><g class="guides"><path class="major guide line" d="M0.000000 400.191113 h1052.400000"/><text class="major" x="-5" y="405.0911125861402">20</text><title>20</title></g><g class="guides"><path class="guide line" d="M0.000000 356.495448 h1052.400000"/><text class="" x="-5" y="361.395448119285">21</text><title>21</title></g><g class="guides"><path class="guide line" d="M0.000000 312.799784 h1052.400000"/><text class="" x="-5" y="317.6997836524298">22</text><title>22</title></g><g class="guides"><path class="guide line" d="M0.000000 269.104119 h1052.400000"/><text class="" x="-5" y="274.00411918557455">23</text><title>23</title></g><g class="guides"><path class="guide line" d="M0.000000 225.408455 h1052.400000"/><text class="" x="-5" y="230.30845471871936">24</text><title>24</title></g><g class="guides"><path class="major guide line" d="M0.000000 181.712790 h1052.400000"/><text class="major" x="-5" y="186.61279025186414">25</text><title>25</title></g><g class="guides"><path class="guide line" d="M0.000000 138.017126 h1052.400000"/><text class="" x="-5" y="142.91712578500895">26</text><title>26</title></g><g class="guides"><path class="guide line" d="M0.000000 94.321461 h1052.400000"/><text class="" x="-5" y="99.2214613181537">27</text><title>27</title></g><g class="guides"><path class="guide line" d="M0.000000 50.625797 h1052.400000"/><text class="" x="-5" y="55.525796851298445">28</text><title>28</title></g></g><g class="axis x"><g class="guides"><path class="line" d="M20.238462 0.000000 v451.253866"/><text class="backwards" x="20.23846153846154" y="468.25386608210715" transform="rotate(300 20.238462 468.253866)">2018-03-11</text></g><g class="guides"><path class="guide line" d="M273.219231 0.000000 v451.253866"/><text class="backwards" x="273.21923076923076" y="468.25386608210715" transform="rotate(300 273.219231 468.253866)">2018-03-12</text></g><g class="guides"><path class="guide line" d="M526.200000 0.000000 v451.253866"/><text class="backwards" x="526.2" y="468.25386608210715" transform="rotate(300 526.200000 468.253866)">2018-03-13</text></g><g class="guides"><path class="guide line" d="M779.180769 0.000000 v451.253866"/><text class="backwards" x="779.1807692307692" y="468.25386608210715" transform="rotate(300 779.180769 468.253866)">2018-03-14</text></g><g class="guides"><path class="guide line" d="M1032.161538 0.000000 v451.253866"/><text class="backwards" x="1032.1615384615386" y="468.25386608210715" transform="rotate(300 1032.161538 468.253866)">2018-03-15</text></g></g><g class="series serie-0 color-0"><path class="line reactive nofill" d="M20.238462 108.304074 L21.250385 109.087783 22.262308 109.871469 23.274231 110.655110 24.286154 111.438682 25.298077 112.222162 26.310000 113.005528 27.321923 113.788756 28.333846 114.571825 29.345769 115.354710 30.357692 116.137389 31.369615 116.919840 32.381538 117.702038 33.393462 118.483962 34.405385 119.265589 35.417308 120.046895 36.429231 120.827858 37.441154 121.608455 38.453077 122.388662 39.465000 123.168458 40.476923 123.947819 41.488846 124.726722 42.500769 125.505145 43.512692 126.283064 44.524615 127.060457 45.536538 127.837300 46.548462 128.613571 47.560385 129.389248 48.572308 130.164306 49.584231 130.938724 50.596154 131.712478 51.608077 132.485545 52.620000 133.257903 53.631923 134.029528 54.643846 134.800399 55.655769 135.570491 56.667692 136.339782 57.679615 137.108250 58.691538 137.875870 59.703462 138.642621 60.715385 139.408480 61.727308 140.173423 62.739231 140.937427 63.751154 141.700471 64.763077 142.462530 65.775000 143.223583 66.786923 143.983605 67.798846 144.742575 68.810769 145.500469 69.822692 146.257265 70.834615 147.012939 71.846538 147.767470 72.858462 148.520832 73.870385 149.273005 74.882308 150.023965 75.894231 150.773689 76.906154 151.522155 77.918077 152.269339 78.930000 153.015218 79.941923 153.759770 80.953846 154.502972 81.965769 155.244800 82.977692 155.985233 83.989615 156.724246 85.001538 157.461818 86.013462 158.197926 87.025385 158.932545 88.037308 159.665654 89.049231 160.397230 90.061154 161.127250 91.073077 161.855691 92.085000 162.582529 93.096923 163.307743 94.108846 164.031309 95.120769 164.753204 96.132692 165.473406 97.144615 166.191891 98.156538 166.908637 99.168462 167.623621 100.180385 168.336820 101.192308 169.048211 102.204231 169.757771 103.216154 170.465477 104.228077 171.171307 105.240000 171.875237 106.251923 172.577244 107.263846 173.277307 108.275769 173.975401 109.287692 174.671505 110.299615 175.365594 111.311538 176.057646 112.323462 176.747639 113.335385 177.435550 114.347308 178.121354 115.359231 178.805031 116.371154 179.486556 117.383077 180.165907 118.395000 180.843061 119.406923 181.517995 120.418846 182.190687 121.430769 182.861112 122.442692 183.529249 123.454615 184.195075 124.466538 184.858567 125.478462 185.519701 126.490385 186.178455 127.502308 186.834806 128.514231 187.488731 129.526154 188.140208 130.538077 188.789212 131.550000 189.435723 132.561923 190.079716 133.573846 190.721168 134.585769 191.360058 135.597692 191.996361 136.609615 192.630056 137.621538 193.261118 138.633462 193.889526 139.645385 194.515256 140.657308 195.138286 141.669231 195.758592 142.681154 196.376152 143.693077 196.990943 144.705000 197.602942 145.716923 198.212126 146.728846 198.818472 147.740769 199.421958 148.752692 200.022560 149.764615 200.620255 150.776538 201.215021 151.788462 201.806835 152.800385 202.395674 153.812308 202.981515 154.824231 203.564335 155.836154 204.144111 156.848077 204.720820 157.860000 205.294440 158.871923 205.864947 159.883846 206.432320 160.895769 206.996533 161.907692 207.557566 162.919615 208.115395 163.931538 208.669997 164.943462 209.221349 165.955385 209.769429 166.967308 210.314213 167.979231 210.855679 168.991154 211.393803 170.003077 211.928563 171.015000 212.459936 172.026923 212.987900 173.038846 213.512430 174.050769 214.033505 175.062692 214.551101 176.074615 215.065195 177.086538 215.575766 178.098462 216.082788 179.110385 216.586241 180.122308 217.086101 181.134231 217.582345 182.146154 218.074950 183.158077 218.563893 184.170000 219.049152 185.181923 219.530703 186.193846 220.008524 187.205769 220.482592 188.217692 220.952884 189.229615 221.419376 190.241538 221.882047 191.253462 222.340873 192.265385 222.795832 193.277308 223.246899 194.289231 223.694054 195.301154 224.137272 196.313077 224.576531 197.325000 225.011807 198.336923 225.443079 199.348846 225.870323 200.360769 226.293516 201.372692 226.712636 202.384615 227.127659 203.396538 227.538563 204.408462 227.945324 205.420385 228.347920 206.432308 228.746328 207.444231 229.140526 208.456154 229.530489 209.468077 229.916196 210.480000 230.297623 211.491923 230.674747 212.503846 231.047547 213.515769 231.415997 214.527692 231.780077 215.539615 232.139763 216.551538 232.495032 217.563462 232.845861 218.575385 233.192228 219.587308 233.534108 220.599231 233.871481 221.611154 234.204322 222.623077 234.532609 223.635000 234.856319 224.646923 235.175428 225.658846 235.489915 226.670769 235.799756 227.682692 236.104929 228.694615 236.405410 229.706538 236.701176 230.718462 236.992205 231.730385 237.278474 232.742308 237.559960 233.754231 237.836640 234.766154 238.108491 235.778077 238.375491 236.790000 238.637616 237.801923 238.894843 238.813846 239.147150 239.825769 239.394513 240.837692 239.636911 241.849615 239.874319 242.861538 240.106715 243.873462 240.334077 244.885385 240.556381 245.897308 240.773604 246.909231 240.985724 247.921154 241.192718 248.933077 241.394562 249.945000 241.591234 250.956923 241.782711 251.968846 241.968970 252.980769 242.149989 253.992692 242.325743 255.004615 242.496212 256.016538 242.661370 257.028462 242.821197 258.040385 242.975668 259.052308 243.124761 260.064231 243.268453 261.076154 243.406721 262.088077 243.539543 263.100000 243.666894 264.111923 243.788754 265.123846 243.905097 266.135769 244.015903 267.147692 244.121147 268.159615 244.220808 269.171538 244.314861 270.183462 244.403285 271.195385 244.486055 272.207308 244.563150 273.219231 244.634547 274.231154 244.700233 275.243077 244.760236 276.255000 244.814595 277.266923 244.863348 278.278846 244.906536 279.290769 244.944196 280.302692 244.976367 281.314615 245.003088 282.326538 245.024397 283.338462 245.040334 284.350385 245.050938 285.362308 245.056246 286.374231 245.056297 287.386154 245.051132 288.398077 245.040787 289.410000 245.025302 290.421923 245.004716 291.433846 244.979067 292.445769 244.948395 293.457692 244.912737 294.469615 244.872133 295.481538 244.826622 296.493462 244.776242 297.505385 244.721031 298.517308 244.661030 299.529231 244.596276 300.541154 244.526808 301.553077 244.452665 302.565000 244.373886 303.576923 244.290509 304.588846 244.202573 305.600769 244.110118 306.612692 244.013181 307.624615 243.911802 308.636538 243.806019 309.648462 243.695871 310.660385 243.581396 311.672308 243.462635 312.684231 243.339624 313.696154 243.212404 314.708077 243.081012 315.720000 242.945488 316.731923 242.805870 317.743846 242.662197 318.755769 242.514507 319.767692 242.362841 320.779615 242.207236 321.791538 242.047730 322.803462 241.884364 323.815385 241.717175 324.827308 241.546202 325.839231 241.371485 326.851154 241.193061 327.863077 241.010970 328.875000 240.825250 329.886923 240.635940 330.898846 240.443079 331.910769 240.246706 332.922692 240.046859 333.934615 239.843577 334.946538 239.636899 335.958462 239.426863 336.970385 239.213509 337.982308 238.996875 338.994231 238.777000 340.006154 238.553922 341.018077 238.327681 342.030000 238.098315 343.041923 237.865862 344.053846 237.630363 345.065769 237.391855 346.077692 237.150376 347.089615 236.905967 348.101538 236.658666 349.113462 236.408511 350.125385 236.155541 351.137308 235.899794 352.149231 235.641311 353.161154 235.380129 354.173077 235.116287 355.185000 234.849824 356.196923 234.580779 357.208846 234.309190 358.220769 234.035096 359.232692 233.758537 360.244615 233.479549 361.256538 233.198174 362.268462 232.914448 363.280385 232.628412 364.292308 232.340103 365.304231 232.049561 366.316154 231.756824 367.328077 231.461931 368.340000 231.164920 369.351923 230.865831 370.363846 230.564703 371.375769 230.261573 372.387692 229.956481 373.399615 229.649465 374.411538 229.340565 375.423462 229.029819 376.435385 228.717265 377.447308 228.402943 378.459231 228.086892 379.471154 227.769149 380.483077 227.449754 381.495000 227.128745 382.506923 226.806162 383.518846 226.482043 384.530769 226.156427 385.542692 225.829352 386.554615 225.500857 387.566538 225.170982 388.578462 224.839764 389.590385 224.507243 390.602308 224.173457 391.614231 223.838445 392.626154 223.502246 393.638077 223.164899 394.650000 222.826441 395.661923 222.486913 396.673846 222.146353 397.685769 221.804800 398.697692 221.462291 399.709615 221.118867 400.721538 220.774566 401.733462 220.429426 402.745385 220.083486 403.757308 219.736786 404.769231 219.389363 405.781154 219.041258 406.793077 218.692507 407.805000 218.343151 408.816923 217.993227 409.828846 217.642775 410.840769 217.291834 411.852692 216.940441 412.864615 216.588637 413.876538 216.236459 414.888462 215.883946 415.900385 215.531138 416.912308 215.178073 417.924231 214.824789 418.936154 214.471326 419.948077 214.117721 420.960000 213.764015 421.971923 213.410245 422.983846 213.056451 423.995769 212.702671 425.007692 212.348944 426.019615 211.995309 427.031538 211.641804 428.043462 211.288468 429.055385 210.935340 430.067308 210.582459 431.079231 210.229864 432.091154 209.877592 433.103077 209.525684 434.115000 209.174177 435.126923 208.823111 436.138846 208.472524 437.150769 208.122454 438.162692 207.772942 439.174615 207.424025 440.186538 207.075743 441.198462 206.728133 442.210385 206.381235 443.222308 206.035088 444.234231 205.689729 445.246154 205.345199 446.258077 205.001536 447.270000 204.658778 448.281923 204.316965 449.293846 203.976134 450.305769 203.636325 451.317692 203.297577 452.329615 202.959928 453.341538 202.623417 454.353462 202.288083 455.365385 201.953964 456.377308 201.621100 457.389231 201.289529 458.401154 200.959289 459.413077 200.630421 460.425000 200.302961 461.436923 199.976950 462.448846 199.652425 463.460769 199.329426 464.472692 199.007991 465.484615 198.688159 466.496538 198.369970 467.508462 198.053460 468.520385 197.738670 469.532308 197.425639 470.544231 197.114404 471.556154 196.805004 472.568077 196.497479 473.580000 196.191868 474.591923 195.888208 475.603846 195.586538 476.615769 195.286898 477.627692 194.989326 478.639615 194.693861 479.651538 194.400542 480.663462 194.109407 481.675385 193.820495 482.687308 193.533846 483.699231 193.249496 484.711154 192.967486 485.723077 192.687855 486.735000 192.410640 487.746923 192.135881 488.758846 191.863616 489.770769 191.593885 490.782692 191.326725 491.794615 191.062176 492.806538 190.800277 493.818462 190.541066 494.830385 190.284581 495.842308 190.030863 496.854231 189.779949 497.866154 189.531878 498.878077 189.286689 499.890000 189.044420 500.901923 188.805112 501.913846 188.568801 502.925769 188.335527 503.937692 188.105330 504.949615 187.878246 505.961538 187.654316 506.973462 187.433578 507.985385 187.216070 508.997308 187.001832 510.009231 186.790903 511.021154 186.583320 512.033077 186.379123 513.045000 186.178351 514.056923 185.981042 515.068846 185.787235 516.080769 185.596968 517.092692 185.410281 518.104615 185.227213 519.116538 185.047801 520.128462 184.872086 521.140385 184.700105 522.152308 184.531897 523.164231 184.367501 524.176154 184.206956 525.188077 184.050301 526.200000 183.897573 527.211923 183.748803 528.223846 183.603977 529.235769 183.463071 530.247692 183.326062 531.259615 183.192928 532.271538 183.063644 533.283462 182.938188 534.295385 182.816537 535.307308 182.698666 536.319231 182.584554 537.331154 182.474177 538.343077 182.367511 539.355000 182.264533 540.366923 182.165220 541.378846 182.069549 542.390769 181.977497 543.402692 181.889040 544.414615 181.804155 545.426538 181.722819 546.438462 181.645009 547.450385 181.570701 548.462308 181.499872 549.474231 181.432499 550.486154 181.368559 551.498077 181.308028 552.510000 181.250883 553.521923 181.197102 554.533846 181.146660 555.545769 181.099535 556.557692 181.055703 557.569615 181.015142 558.581538 180.977827 559.593462 180.943735 560.605385 180.912844 561.617308 180.885131 562.629231 180.860571 563.641154 180.839141 564.653077 180.820820 565.665000 180.805582 566.676923 180.793406 567.688846 180.784267 568.700769 180.778142 569.712692 180.775009 570.724615 180.774844 571.736538 180.777624 572.748462 180.783325 573.760385 180.791925 574.772308 180.803400 575.784231 180.817727 576.796154 180.834882 577.808077 180.854843 578.820000 180.877586 579.831923 180.903087 580.843846 180.931325 581.855769 180.962275 582.867692 180.995914 583.879615 181.032220 584.891538 181.071168 585.903462 181.112736 586.915385 181.156900 587.927308 181.203637 588.939231 181.252923 589.951154 181.304737 590.963077 181.359054 591.975000 181.415851 592.986923 181.475105 593.998846 181.536792 595.010769 181.600891 596.022692 181.667376 597.034615 181.736225 598.046538 181.807415 599.058462 181.880923 600.070385 181.956725 601.082308 182.034797 602.094231 182.115118 603.106154 182.197663 604.118077 182.282410 605.130000 182.369335 606.141923 182.458414 607.153846 182.549626 608.165769 182.642945 609.177692 182.738350 610.189615 182.835817 611.201538 182.935323 612.213462 183.036844 613.225385 183.140357 614.237308 183.245839 615.249231 183.353267 616.261154 183.462618 617.273077 183.573868 618.285000 183.686994 619.296923 183.801973 620.308846 183.918782 621.320769 184.037396 622.332692 184.157795 623.344615 184.279953 624.356538 184.403847 625.368462 184.529455 626.380385 184.656754 627.392308 184.785719 628.404231 184.916328 629.416154 185.048558 630.428077 185.182385 631.440000 185.317786 632.451923 185.454738 633.463846 185.593217 634.475769 185.733201 635.487692 185.874666 636.499615 186.017588 637.511538 186.161946 638.523462 186.307715 639.535385 186.454872 640.547308 186.603394 641.559231 186.753257 642.571154 186.904440 643.583077 187.056917 644.595000 187.210667 645.606923 187.365665 646.618846 187.521889 647.630769 187.679315 648.642692 187.837920 649.654615 187.997681 650.666538 188.158575 651.678462 188.320578 652.690385 188.483668 653.702308 188.647820 654.714231 188.813012 655.726154 188.979220 656.738077 189.146422 657.750000 189.314593 658.761923 189.483712 659.773846 189.653754 660.785769 189.824696 661.797692 189.996515 662.809615 190.169188 663.821538 190.342692 664.833462 190.517003 665.845385 190.692098 666.857308 190.867954 667.869231 191.044548 668.881154 191.221856 669.893077 191.399856 670.905000 191.578523 671.916923 191.757835 672.928846 191.937769 673.940769 192.118301 674.952692 192.299408 675.964615 192.481066 676.976538 192.663254 677.988462 192.845946 679.000385 193.029121 680.012308 193.212754 681.024231 193.396824 682.036154 193.581305 683.048077 193.766176 684.060000 193.951413 685.071923 194.136992 686.083846 194.322891 687.095769 194.509086 688.107692 194.695554 689.119615 194.882272 690.131538 195.069216 691.143462 195.256364 692.155385 195.443692 693.167308 195.631177 694.179231 195.818795 695.191154 196.006523 696.203077 196.194339 697.215000 196.382219 698.226923 196.570139 699.238846 196.758077 700.250769 196.946009 701.262692 197.133912 702.274615 197.321762 703.286538 197.509538 704.298462 197.697214 705.310385 197.884769 706.322308 198.072178 707.334231 198.259419 708.346154 198.446468 709.358077 198.633302 710.370000 198.819898 711.381923 199.006233 712.393846 199.192284 713.405769 199.378026 714.417692 199.563437 715.429615 199.748494 716.441538 199.933174 717.453462 200.117453 718.465385 200.301307 719.477308 200.484715 720.489231 200.667652 721.501154 200.850096 722.513077 201.032022 723.525000 201.213408 724.536923 201.394231 725.548846 201.574468 726.560769 201.754094 727.572692 201.933088 728.584615 202.111425 729.596538 202.289082 730.608462 202.466037 731.620385 202.642265 732.632308 202.817745 733.644231 202.992452 734.656154 203.166363 735.668077 203.339455 736.680000 203.511705 737.691923 203.683090 738.703846 203.853586 739.715769 204.023170 740.727692 204.191819 741.739615 204.359510 742.751538 204.526219 743.763462 204.691923 744.775385 204.856600 745.787308 205.020224 746.799231 205.182775 747.811154 205.344228 748.823077 205.504559 749.835000 205.663747 750.846923 205.821767 751.858846 205.978596 752.870769 206.134211 753.882692 206.288590 754.894615 206.441708 755.906538 206.593542 756.918462 206.744069 757.930385 206.893266 758.942308 207.041111 759.954231 207.187578 760.966154 207.332646 761.978077 207.476290 762.990000 207.618489 764.001923 207.759218 765.013846 207.898454 766.025769 208.036174 767.037692 208.172355 768.049615 208.306974 769.061538 208.440007 770.073462 208.571431 771.085385 208.701223 772.097308 208.829360 773.109231 208.955818 774.121154 209.080574 775.133077 209.203606 776.145000 209.324889 777.156923 209.444400 778.168846 209.562117 779.180769 209.678016 780.192692 209.792078 781.204615 209.904307 782.216538 210.014709 783.228462 210.123292 784.240385 210.230064 785.252308 210.335031 786.264231 210.438201 787.276154 210.539581 788.288077 210.639179 789.300000 210.737003 790.311923 210.833058 791.323846 210.927354 792.335769 211.019896 793.347692 211.110693 794.359615 211.199752 795.371538 211.287081 796.383462 211.372686 797.395385 211.456574 798.407308 211.538755 799.419231 211.619234 800.431154 211.698019 801.443077 211.775117 802.455000 211.850536 803.466923 211.924284 804.478846 211.996367 805.490769 212.066793 806.502692 212.135569 807.514615 212.202703 808.526538 212.268202 809.538462 212.332073 810.550385 212.394324 811.562308 212.454962 812.574231 212.513995 813.586154 212.571429 814.598077 212.627273 815.610000 212.681533 816.621923 212.734217 817.633846 212.785332 818.645769 212.834886 819.657692 212.882886 820.669615 212.929340 821.681538 212.974254 822.693462 213.017636 823.705385 213.059494 824.717308 213.099834 825.729231 213.138665 826.741154 213.175993 827.753077 213.211827 828.765000 213.246172 829.776923 213.279038 830.788846 213.310430 831.800769 213.340357 832.812692 213.368825 833.824615 213.395843 834.836538 213.421417 835.848462 213.445555 836.860385 213.468264 837.872308 213.489552 838.884231 213.509425 839.896154 213.527892 840.908077 213.544960 841.920000 213.560636 842.931923 213.574927 843.943846 213.587841 844.955769 213.599385 845.967692 213.609566 846.979615 213.618393 847.991538 213.625871 849.003462 213.632010 850.015385 213.636815 851.027308 213.640294 852.039231 213.642456 853.051154 213.643306 854.063077 213.642853 855.075000 213.641103 856.086923 213.638065 857.098846 213.633745 858.110769 213.628151 859.122692 213.621290 860.134615 213.613170 861.146538 213.603798 862.158462 213.593181 863.170385 213.581327 864.182308 213.568243 865.194231 213.553937 866.206154 213.538415 867.218077 213.521685 868.230000 213.503755 869.241923 213.484632 870.253846 213.464323 871.265769 213.442836 872.277692 213.420178 873.289615 213.396356 874.301538 213.371378 875.313462 213.345250 876.325385 213.317982 877.337308 213.289579 878.349231 213.260049 879.361154 213.229400 880.373077 213.197639 881.385000 213.164773 882.396923 213.130810 883.408846 213.095756 884.420769 213.059620 885.432692 213.022409 886.444615 212.984130 887.456538 212.944790 888.468462 212.904398 889.480385 212.862959 890.492308 212.820482 891.504231 212.776974 892.516154 212.732442 893.528077 212.686894 894.540000 212.640336 895.551923 212.592778 896.563846 212.544225 897.575769 212.494685 898.587692 212.444165 899.599615 212.392673 900.611538 212.340217 901.623462 212.286803 902.635385 212.232439 903.647308 212.177133 904.659231 212.120891 905.671154 212.063721 906.683077 212.005630 907.695000 211.946626 908.706923 211.886717 909.718846 211.825909 910.730769 211.764209 911.742692 211.701626 912.754615 211.638167 913.766538 211.573838 914.778462 211.508648 915.790385 211.442603 916.802308 211.375712 917.814231 211.307981 918.826154 211.239417 919.838077 211.170029 920.850000 211.099823 921.861923 211.028808 922.873846 210.956989 923.885769 210.884375 924.897692 210.810973 925.909615 210.736790 926.921538 210.661834 927.933462 210.586112 928.945385 210.509632 929.957308 210.432400 930.969231 210.354424 931.981154 210.275712 932.993077 210.196271 934.005000 210.116108 935.016923 210.035231 936.028846 209.953646 937.040769 209.871362 938.052692 209.788386 939.064615 209.704725 940.076538 209.620386 941.088462 209.535377 942.100385 209.449705 943.112308 209.363378 944.124231 209.276402 945.136154 209.188786 946.148077 209.100536 947.160000 209.011661 948.171923 208.922167 949.183846 208.832061 950.195769 208.741352 951.207692 208.650046 952.219615 208.558151 953.231538 208.465674 954.243462 208.372622 955.255385 208.279004 956.267308 208.184825 957.279231 208.090095 958.291154 207.994819 959.303077 207.899006 960.315000 207.802662 961.326923 207.705796 962.338846 207.608414 963.350769 207.510524 964.362692 207.412133 965.374615 207.313249 966.386538 207.213878 967.398462 207.114029 968.410385 207.013708 969.422308 206.912924 970.434231 206.811683 971.446154 206.709992 972.458077 206.607860 973.470000 206.505293 974.481923 206.402299 975.493846 206.298885 976.505769 206.195059 977.517692 206.090828 978.529615 205.986199 979.541538 205.881180 980.553462 205.775777 981.565385 205.669999 982.577308 205.563853 983.589231 205.457346 984.601154 205.350486 985.613077 205.243279 986.625000 205.135734 987.636923 205.027857 988.648846 204.919656 989.660769 204.811138 990.672692 204.702311 991.684615 204.593182 992.696538 204.483759 993.708462 204.374048 994.720385 204.264058 995.732308 204.153795 996.744231 204.043266 997.756154 203.932480 998.768077 203.821444 999.780000 203.710165 1000.791923 203.598650 1001.803846 203.486906 1002.815769 203.374942 1003.827692 203.262764 1004.839615 203.150380 1005.851538 203.037797 1006.863462 202.925022 1007.875385 202.812064 1008.887308 202.698928 1009.899231 202.585624 1010.911154 202.472157 1011.923077 202.358535 1012.935000 202.244767 1013.946923 202.130858 1014.958846 202.016817 1015.970769 201.902650 1016.982692 201.788366 1017.994615 201.673971 1019.006538 201.559473 1020.018462 201.444880 1021.030385 201.330198 1022.042308 201.215435 1023.054231 201.100598 1024.066154 200.985695 1025.078077 200.870733 1026.090000 200.755720 1027.101923 200.640662 1028.113846 200.525568 1029.125769 200.410444 1030.137692 200.295298 1031.149615 200.180137 1032.161538 200.064969"/></g></g><g class="titles"><text class="title plot_title" x="600.0" y="26">Example 1b average daily temperature</text></g><g class="plot overlay" transform="translate(127, 46)"><g class="series serie-0 color-0"><g class="ci"><path class="nofill reactive" d="M20.238462 89.077982 L27.238462 89.077982 M20.238462 89.077982 L13.238462 89.077982 M20.238462 89.077982 L20.238462 128.841036 L27.238462 128.841036 M20.238462 128.841036 L13.238462 128.841036"/></g><g class="dots"><circle class="dot reactive tooltip-trigger" cx="20.23846153846154" cy="108.30407394754735" r="2.5"/><desc class="value">26.68</desc><desc class="x ">20.23846153846154</desc><desc class="y ">108.30407394754735</desc><desc class="x_label">2018-03-11</desc></g><g class="ci"><path class="nofill reactive" d="M273.219231 134.084516 L280.219231 134.084516 M273.219231 134.084516 L266.219231 134.084516 M273.219231 134.084516 L273.219231 418.980248 L280.219231 418.980248 M273.219231 418.980248 L266.219231 418.980248"/></g><g class="dots"><circle class="dot reactive tooltip-trigger" cx="273.21923076923076" cy="244.6345470841357" r="2.5"/><desc class="value">23.56</desc><desc class="x top">273.21923076923076</desc><desc class="y top">244.6345470841357</desc><desc class="x_label">2018-03-12</desc></g><g class="ci"><path class="nofill reactive" d="M526.200000 74.221456 L533.200000 74.221456 M526.200000 74.221456 L519.200000 74.221456 M526.200000 74.221456 L526.200000 407.182419 L533.200000 407.182419 M526.200000 407.182419 L519.200000 407.182419"/></g><g class="dots"><circle class="dot reactive tooltip-trigger" cx="526.2" cy="183.8975734752069" r="2.5"/><desc class="value">24.95</desc><desc class="x ">526.2</desc><desc class="y ">183.8975734752069</desc><desc class="x_label">2018-03-13</desc></g><g class="ci"><path class="nofill reactive" d="M779.180769 96.506245 L786.180769 96.506245 M779.180769 96.506245 L772.180769 96.506245 M779.180769 96.506245 L779.180769 442.575907 L786.180769 442.575907 M779.180769 442.575907 L772.180769 442.575907"/></g><g class="dots"><circle class="dot reactive tooltip-trigger" cx="779.1807692307692" cy="209.6780155106515" r="2.5"/><desc class="value">24.36</desc><desc class="x left">779.1807692307692</desc><desc class="y left">209.6780155106515</desc><desc class="x_label">2018-03-14</desc></g><g class="ci"><path class="nofill reactive" d="M1032.161538 8.677959 L1039.161538 8.677959 M1032.161538 8.677959 L1025.161538 8.677959 M1032.161538 8.677959 L1032.161538 358.243275 L1039.161538 358.243275 M1032.161538 358.243275 L1025.161538 358.243275"/></g><g class="dots"><circle class="dot reactive tooltip-trigger" cx="1032.1615384615386" cy="200.06496932794337" r="2.5"/><desc class="value">24.58</desc><desc class="x left">1032.1615384615386</desc><desc class="y left">200.06496932794337</desc><desc class="x_label">2018-03-15</desc></g></g></g><g class="plot text-overlay" transform="translate(127, 46)"><g class="series serie-0 color-0"/></g><g class="plot tooltip-overlay" transform="translate(127, 46)"><g class="tooltip" style="opacity: 0" transform="translate(0 0)"><rect class="tooltip-box" height="0" rx="0" ry="0" width="0"/><g class="text"/></g></g><g class="legends" transform="translate(10, 56)"><g class="legend reactive activate-serie" id="activate-serie-0"><rect class="color-0 reactive" height="12" width="12" x="0.0" y="1.0"/><text x="17.0" y="11.2">Celcius</text></g></g><g class="legends" transform="translate(1190, 56)"/></g></svg>