<?xml version='1.0' encoding='utf-8'?>
<svg xmlns:xlink="http://www.w3.org/1999/xlink" xmlns="http://www.w3.org/2000/svg" id="chart-f7c8bd79-1c47-4a05-bae9-7ed8b4d47e1a" class="pygal-chart" viewBox="0 0 1200 600"><!--Generated with pygal 3.0.1 (lxml) ©Kozea 2012-2016 on 2024-04-07--><!--http://pygal.org--><!--http://github.com/Kozea/pygal--><defs><style type="text/css">#chart-f7c8bd79-1c47-4a05-bae9-7ed8b4d47e1a{-webkit-user-select:none;-webkit-font-smoothing:antialiased;font-family:Roboto,Helvetica,Arial,sans-serif}#chart-f7c8bd79-1c47-4a05-bae9-7ed8b4d47e1a .title{font-family:Roboto,Helvetica,Arial,sans-serif;font-size:16px}#chart-f7c8bd79-1c47-4a05-bae9-7ed8b4d47e1a .legends .legend text{font-family:Roboto,Helvetica,Arial,sans-serif;font-size:14px}#chart-f7c8bd79-1c47-4a05-bae9-7ed8b4d47e1a .axis text{font-family:Roboto,Helvetica,Arial,sans-serif;font-size:14px}#chart-f7c8bd79-1c47-4a05-bae9-7ed8b4d47e1a .axis text.major{font-family:Roboto,Helvetica,Arial,sans-serif;font-size:10px}#chart-f7c8bd79-1c47-4a05-bae9-7ed8b4d47e1a .text-overlay text.value{font-family:Roboto,Helvetica,Arial,sans-serif;font-size:16px}#chart-f7c8bd79-1c47-4a05-bae9-7ed8b4d47e1a .text-overlay text.label{font-family:Roboto,Helvetica,Arial,sans-serif;font-size:10px}#chart-f7c8bd79-1c47-4a05-bae9-7ed8b4d47e1a .tooltip{font-family:Roboto,Helvetica,Arial,sans-serif;font-size:14px}#chart-f7c8bd79-1c47-4a05-bae9-7ed8b4d47e1a text.no_data{font-family:Roboto,Helvetica,Arial,sans-serif;font-size:64px}
#chart-f7c8bd79-1c47-4a05-bae9-7ed8b4d47e1a{background-color:transparent}#chart-f7c8bd79-1c47-4a05-bae9-7ed8b4d47e1a path,#chart-f7c8bd79-1c47-4a05-bae9-7ed8b4d47e1a line,#chart-f7c8bd79-1c47-4a05-bae9-7ed8b4d47e1a rect,#chart-f7c8bd79-1c47-4a05-bae9-7ed8b4d47e1a circle{-webkit-transition:150ms;-moz-transition:150ms;transition:150ms}#chart-f7c8bd79-1c47-4a05-bae9-7ed8b4d47e1a .graph &gt; .background{fill:transparent}#chart-f7c8bd79-1c47-4a05-bae9-7ed8b4d47e1a .plot &gt; .background{fill:rgba(255,255,255,1)}#chart-f7c8bd79-1c47-4a05-bae9-7ed8b4d47e1a .graph{fill:rgba(0,0,0,.87)}#chart-f7c8bd79-1c47-4a05-bae9-7ed8b4d47e1a text.no_data{fill:rgba(0,0,0,1)}#chart-f7c8bd79-1c47-4a05-bae9-7ed8b4d47e1a .title{fill:rgba(0,0,0,1)}#chart-f7c8bd79-1c47-4a05-bae9-7ed8b4d47e1a .legends .legend text{fill:rgba(0,0,0,.87)}#chart-f7c8bd79-1c47-4a05-bae9-7ed8b4d47e1a .legends .legend:hover text{fill:rgba(0,0,0,1)}#chart-f7c8bd79-1c47-4a05-bae9-7ed8b4d47e1a .axis .line{stroke:rgba(0,0,0,1)}#chart-f7c8bd79-1c47-4a05-bae9-7ed8b4d47e1a .axis .guide.line{stroke:rgba(0,0,0,.54)}#chart-f7c8bd79-1c47-4a05-bae9-7ed8b4d47e1a .axis .major.line{stroke:rgba(0,0,0,.87)}#chart-f7c8bd79-1c47-4a05-bae9-7ed8b4d47e1a .axis text.major{fill:rgba(0,0,0,1)}#chart-f7c8bd79-1c47-4a05-bae9-7ed8b4d47e1a .axis.y .guides:hover .guide.line,#chart-f7c8bd79-1c47-4a05-bae9-7ed8b4d47e1a .line-graph .axis.x .guides:hover .guide.line,#chart-f7c8bd79-1c47-4a05-bae9-7ed8b4d47e1a .stackedline-graph .axis.x .guides:hover .guide.line,#chart-f7c8bd79-1c47-4a05-bae9-7ed8b4d47e1a .xy-graph .axis.x .guides:hover .guide.line{stroke:rgba(0,0,0,1)}#chart-f7c8bd79-1c47-4a05-bae9-7ed8b4d47e1a .axis .guides:hover text{fill:rgba(0,0,0,1)}#chart-f7c8bd79-1c47-4a05-bae9-7ed8b4d47e1a .reactive{fill-opacity:.7;stroke-opacity:.8;stroke-width:1}#chart-f7c8bd79-1c47-4a05-bae9-7ed8b4d47e1a .ci{stroke:rgba(0,0,0,.87)}#chart-f7c8bd79-1c47-4a05-bae9-7ed8b4d47e1a .reactive.active,#chart-f7c8bd79-1c47-4a05-bae9-7ed8b4d47e1a .active .reactive{fill-opacity:.8;stroke-opacity:.9;stroke-width:4}#chart-f7c8bd79-1c47-4a05-bae9-7ed8b4d47e1a .ci .reactive.active{stroke-width:1.5}#chart-f7c8bd79-1c47-4a05-bae9-7ed8b4d47e1a .series text{fill:rgba(0,0,0,1)}#chart-f7c8bd79-1c47-4a05-bae9-7ed8b4d47e1a .tooltip rect{fill:rgba(255,255,255,1);stroke:rgba(0,0,0,1);-webkit-transition:opacity 150ms;-moz-transition:opacity 150ms;transition:opacity 150ms}#chart-f7c8bd79-1c47-4a05-bae9-7ed8b4d47e1a .tooltip .label{fill:rgba(0,0,0,.87)}#chart-f7c8bd79-1c47-4a05-bae9-7ed8b4d47e1a .tooltip .label{fill:rgba(0,0,0,.87)}#chart-f7c8bd79-1c47-4a05-bae9-7ed8b4d47e1a .tooltip .legend{font-size:.8em;fill:rgba(0,0,0,.54)}#chart-f7c8bd79-1c47-4a05-bae9-7ed8b4d47e1a .tooltip .x_label{font-size:.6em;fill:rgba(0,0,0,1)}#chart-f7c8bd79-1c47-4a05-bae9-7ed8b4d47e1a .tooltip .xlink{font-size:.5em;text-decoration:underline}#chart-f7c8bd79-1c47-4a05-bae9-7ed8b4d47e1a .tooltip .value{font-size:1.5em}#chart-f7c8bd79-1c47-4a05-bae9-7ed8b4d47e1a .bound{font-size:.5em}#chart-f7c8bd79-1c47-4a05-bae9-7ed8b4d47e1a .max-value{font-size:.75em;fill:rgba(0,0,0,.54)}#chart-f7c8bd79-1c47-4a05-bae9-7ed8b4d47e1a .map-element{fill:rgba(255,255,255,1);stroke:rgba(0,0,0,.54) !important}#chart-f7c8bd79-1c47-4a05-bae9-7ed8b4d47e1a .map-element .reactive{fill-opacity:inherit;stroke-opacity:inherit}#chart-f7c8bd79-1c47-4a05-bae9-7ed8b4d47e1a .color-0,#chart-f7c8bd79-1c47-4a05-bae9-7ed8b4d47e1a .color-0 a:visited{stroke:#0343df;fill:#0343df}#chart-f7c8bd79-1c47-4a05-bae9-7ed8b4d47e1a .text-overlay .color-0 text{fill:black}
#chart-f7c8bd79-1c47-4a05-bae9-7ed8b4d47e1a text.no_data{text-anchor:middle}#chart-f7c8bd79-1c47-4a05-bae9-7ed8b4d47e1a .guide.line{fill:none}#chart-f7c8bd79-1c47-4a05-bae9-7ed8b4d47e1a .centered{text-anchor:middle}#chart-f7c8bd79-1c47-4a05-bae9-7ed8b4d47e1a .title{text-anchor:middle}#chart-f7c8bd79-1c47-4a05-bae9-7ed8b4d47e1a .legends .legend text{fill-opacity:1}#chart-f7c8bd79-1c47-4a05-bae9-7ed8b4d47e1a .axis.x text{text-anchor:middle}#chart-f7c8bd79-1c47-4a05-bae9-7ed8b4d47e1a .axis.x:not(.web) text[transform]{text-anchor:start}#chart-f7c8bd79-1c47-4a05-bae9-7ed8b4d47e1a .axis.x:not(.web) text[transform].backwards{text-anchor:end}#chart-f7c8bd79-1c47-4a05-bae9-7ed8b4d47e1a .axis.y text{text-anchor:end}#chart-f7c8bd79-1c47-4a05-bae9-7ed8b4d47e1a .axis.y text[transform].backwards{text-anchor:start}#chart-f7c8bd79-1c47-4a05-bae9-7ed8b4d47e1a .axis.y2 text{text-anchor:start}#chart-f7c8bd79-1c47-4a05-bae9-7ed8b4d47e1a .axis.y2 text[transform].backwards{text-anchor:end}#chart-f7c8bd79-1c47-4a05-bae9-7ed8b4d47e1a .axis .guide.line{stroke-dasharray:4,4;stroke:black}#chart-f7c8bd79-1c47-4a05-bae9-7ed8b4d47e1a .axis .major.guide.line{stroke-dasharray:6,6;stroke:black}#chart-f7c8bd79-1c47-4a05-bae9-7ed8b4d47e1a .horizontal .axis.y .guide.line,#chart-f7c8bd79-1c47-4a05-bae9-7ed8b4d47e1a .horizontal .axis.y2 .guide.line,#chart-f7c8bd79-1c47-4a05-bae9-7ed8b4d47e1a .vertical .axis.x .guide.line{opacity:0}#chart-f7c8bd79-1c47-4a05-bae9-7ed8b4d47e1a .horizontal .axis.always_show .guide.line,#chart-f7c8bd79-1c47-4a05-bae9-7ed8b4d47e1a .vertical .axis.always_show .guide.line{opacity:1 !important}#chart-f7c8bd79-1c47-4a05-bae9-7ed8b4d47e1a .axis.y .guides:hover .guide.line,#chart-f7c8bd79-1c47-4a05-bae9-7ed8b4d47e1a .axis.y2 .guides:hover .guide.line,#chart-f7c8bd79-1c47-4a05-bae9-7ed8b4d47e1a .axis.x .guides:hover .guide.line{opacity:1}#chart-f7c8bd79-1c47-4a05-bae9-7ed8b4d47e1a .axis .guides:hover text{opacity:1}#chart-f7c8bd79-1c47-4a05-bae9-7ed8b4d47e1a .nofill{fill:none}#chart-f7c8bd79-1c47-4a05-bae9-7ed8b4d47e1a .subtle-fill{fill-opacity:.2}#chart-f7c8bd79-1c47-4a05-bae9-7ed8b4d47e1a .dot{stroke-width:1px;fill-opacity:1;stroke-opacity:1}#chart-f7c8bd79-1c47-4a05-bae9-7ed8b4d47e1a .dot.active{stroke-width:5px}#chart-f7c8bd79-1c47-4a05-bae9-7ed8b4d47e1a .dot.negative{fill:transparent}#chart-f7c8bd79-1c47-4a05-bae9-7ed8b4d47e1a text,#chart-f7c8bd79-1c47-4a05-bae9-7ed8b4d47e1a tspan{stroke:none !important}#chart-f7c8bd79-1c47-4a05-bae9-7ed8b4d47e1a .series text.active{opacity:1}#chart-f7c8bd79-1c47-4a05-bae9-7ed8b4d47e1a .tooltip rect{fill-opacity:.95;stroke-width:.5}#chart-f7c8bd79-1c47-4a05-bae9-7ed8b4d47e1a .tooltip text{fill-opacity:1}#chart-f7c8bd79-1c47-4a05-bae9-7ed8b4d47e1a .showable{visibility:hidden}#chart-f7c8bd79-1c47-4a05-bae9-7ed8b4d47e1a .showable.shown{visibility:visible}#chart-f7c8bd79-1c47-4a05-bae9-7ed8b4d47e1a .gauge-background{fill:rgba(229,229,229,1);stroke:none}#chart-f7c8bd79-1c47-4a05-bae9-7ed8b4d47e1a .bg-lines{stroke:transparent;stroke-width:2px}</style><script type="text/javascript">window.pygal = window.pygal || {};window.pygal.config = window.pygal.config || {};window.pygal.config['f7c8bd79-1c47-4a05-bae9-7ed8b4d47e1a'] = {"allow_interruptions": false, "box_mode": "extremes", "classes": ["pygal-chart"], "css": ["file://style.css", "file://graph.css"], "defs": [], "disable_xml_declaration": false, "dots_size": 2.5, "dynamic_print_values": false, "explicit_size": false, "fill": false, "force_uri_protocol": "https", "formatter": null, "half_pie": false, "height": 600, "include_x_axis": true, "inner_radius": 0, "interpolate": "cubic", "interpolation_parameters": {}, "interpolation_precision": 250, "inverse_y_axis": false, "js": ["//kozea.github.io/pygal.js/2.0.x/pygal-tooltips.min.js"], "legend_at_bottom": false, "legend_at_bottom_columns": null, "legend_box_size": 12, "logarithmic": false, "margin": 20, "margin_bottom": null, "margin_left": null, "margin_right": null, "margin_top": null, "max_scale": 16, "min_scale": 4, "missing_value_fill_truncation": "x", "no_data_text": "No data", "no_prefix": false, "order_min": null, "pretty_print": false, "print_labels": false, "print_values": false, "print_values_position": "center", "print_zeroes": true, "range": null, "rounded_bars": null, "secondary_range": null, "show_dots": true, "show_legend": true, "show_minor_x_labels": true, "show_minor_y_labels": true, "show_only_major_dots": false, "show_x_guides": false, "show_x_labels": true, "show_y_guides": true, "show_y_labels": true, "spacing": 10, "stack_from_top": false, "strict": false, "stroke": true, "stroke_style": null, "style": {"background": "transparent", "ci_colors": [], "colors": ["#0343df", "#e50000", "#929591", "#ffff14"], "dot_opacity": "1", "font_family": "Roboto,Helvetica,Arial,sans-serif", "foreground": "rgba(0, 0, 0, .87)", "foreground_strong": "rgba(0, 0, 0, 1)", "foreground_subtle": "rgba(0, 0, 0, .54)", "guide_stroke_color": "black", "guide_stroke_dasharray": "4,4", "label_font_family": "Roboto,Helvetica,Arial,sans-serif", "label_font_size": 14, "legend_font_family": "Roboto,Helvetica,Arial,sans-serif", "legend_font_size": 14, "major_guide_stroke_color": "black", "major_guide_stroke_dasharray": "6,6", "major_label_font_family": "Roboto,Helvetica,Arial,sans-serif", "major_label_font_size": 10, "no_data_font_family": "Roboto,Helvetica,Arial,sans-serif", "no_data_font_size": 64, "opacity": ".7", "opacity_hover": ".8", "plot_background": "rgba(255, 255, 255, 1)", "stroke_opacity": ".8", "stroke_opacity_hover": ".9", "stroke_width": "1", "stroke_width_hover": "4", "title_font_family": "Roboto,Helvetica,Arial,sans-serif", "title_font_size": 16, "tooltip_font_family": "Roboto,Helvetica,Arial,sans-serif", "tooltip_font_size": 14, "transition": "150ms", "value_background": "rgba(229, 229, 229, 1)", "value_colors": [], "value_font_family": "Roboto,Helvetica,Arial,sans-serif", "value_font_size": 16, "value_label_font_family": "Roboto,Helvetica,Arial,sans-serif", "value_label_font_size": 10}, "title": "Example 1b average daily temperature", "tooltip_border_radius": 0, "tooltip_fancy_mode": true, "truncate_label": null, "truncate_legend": null, "width": 1200, "x_label_rotation": 300, "x_labels": ["2018-03-11", "2018-03-12", "2018-03-13", "2018-03-14", "2018-03-15"], "x_labels_major": null, "x_labels_major_count": null, "x_labels_major_every": null, "x_title": null, "xrange": null, "y_label_rotation": 0, "y_labels": null, "y_labels_major": null, "y_labels_major_count": null, "y_labels_major_every": null, "y_title": null, "zero": 0, "legends": ["Celcius"]}</script><script type="text/javascript" xlink:href="https://kozea.github.io/pygal.js/2.0.x/pygal-tooltips.min.js"/></defs><title>Example 1b average daily temperature</title><g class="graph line-graph vertical"><rect class="background" height="600" width="1200" x="0" y="0"/><g class="plot" transform="translate(127, 46)"><rect class="background" height="451.25386608210715" width="1052.4" x="0" y="0"/><g class="axis y always_show"><g class="guides"><path class="axis major line" d="M0.000000 442.575907 h1052.400000"/><text class="major" x="-5" y="447.4759071189897">0</text><title>0</title></g><g class="guides"><path class="guide line" d="M0.000000 410.049824 h1052.400000"/><text class="" x="-5" y="414.94982404883433">2</text><title>2</title></g><g class="guides"><path class="guide line" d="M0.000000 377.523741 h1052.400000"/><text class="" x="-5" y="382.423740978679">4</text><title>4</title></g><g class="guides"><path class="guide line" d="M0.000000 344.997658 h1052.400000"/><text class="" x="-5" y="349.8976579085237">6</text><title>6</title></g><g class="guides"><path class="guide line" d="M0.000000 312.471575 h1052.400000"/><text class="" x="-5" y="317.3715748383683">8</text><title>8</title></g><g class="guides"><path class="major guide line" d="M0.000000 279.945492 h1052.400000"/><text class="major" x="-5" y="284.845491768213">10</text><title>10</title></g><g class="guides"><path class="guide line" d="M0.000000 247.419409 h1052.400000"/><text class="" x="-5" y="252.31940869805766">12</text><title>12</title></g><g class="guides"><path class="guide line" d="M0.000000 214.893326 h1052.400000"/><text class="" x="-5" y="219.79332562790233">14</text><title>14</title></g><g class="guides"><path class="guide line" d="M0.000000 182.367243 h1052.400000"/><text class="" x="-5" y="187.26724255774698">16</text><title>16</title></g><g class="guides"><path class="guide line" d="M0.000000 149.841159 h1052.400000"/><text class="" x="-5" y="154.7411594875916">18</text><title>18</title></g><g class="guides"><path class="major guide line" d="M0.000000 117.315076 h1052.400000"/><text class="major" x="-5" y="122.21507641743634">20</text><title>20</title></g><g class="guides"><path class="guide line" d="M0.000000 84.788993 h1052.400000"/><text class="" x="-5" y="89.68899334728096">22</text><title>22</title></g><g class="guides"><path class="guide line" d="M0.000000 52.262910 h1052.400000"/><text class="" x="-5" y="57.16291027712557">24</text><title>24</title></g><g class="guides"><path class="guide line" d="M0.000000 19.736827 h1052.400000"/><text class="" x="-5" y="24.636827206970246">26</text><title>26</title></g></g><g class="axis x"><g class="guides"><path class="line" d="M20.238462 0.000000 v451.253866"/><text class="backwards" x="20.23846153846154" y="468.25386608210715" transform="rotate(300 20.238462 468.253866)">2018-03-11</text></g><g class="guides"><path class="guide line" d="M273.219231 0.000000 v451.253866"/><text class="backwards" x="273.21923076923076" y="468.25386608210715" transform="rotate(300 273.219231 468.253866)">2018-03-12</text></g><g class="guides"><path class="guide line" d="M526.200000 0.000000 v451.253866"/><text class="backwards" x="526.2" y="468.25386608210715" transform="rotate(300 526.200000 468.253866)">2018-03-13</text></g><g class="guides"><path class="guide line" d="M779.180769 0.000000 v451.253866"/><text class="backwards" x="779.1807692307692" y="468.25386608210715" transform="rotate(300 779.180769 468.253866)">2018-03-14</text></g><g class="guides"><path class="guide line" d="M1032.161538 0.000000 v451.253866"/><text class="backwards" x="1032.1615384615386" y="468.25386608210715" transform="rotate(300 1032.161538 468.253866)">2018-03-15</text></g></g><g class="series serie-0 color-0"><path class="line reactive nofill" d="M20.238462 8.677959 L21.250385 8.969647 22.262308 9.261326 23.274231 9.552988 24.286154 9.844625 25.298077 10.136228 26.310000 10.427788 27.321923 10.719297 28.333846 11.010746 29.345769 11.302127 30.357692 11.593432 31.369615 11.884651 32.381538 12.175777 33.393462 12.466801 34.405385 12.757713 35.417308 13.048507 36.429231 13.339172 37.441154 13.629702 38.453077 13.920087 39.465000 14.210318 40.476923 14.500387 41.488846 14.790286 42.500769 15.080007 43.512692 15.369540 44.524615 15.658876 45.536538 15.948009 46.548462 16.236929 47.560385 16.525627 48.572308 16.814095 49.584231 17.102324 50.596154 17.390307 51.608077 17.678034 52.620000 17.965497 53.631923 18.252688 54.643846 18.539597 55.655769 18.826217 56.667692 19.112539 57.679615 19.398554 58.691538 19.684253 59.703462 19.969630 60.715385 20.254674 61.727308 20.539377 62.739231 20.823731 63.751154 21.107727 64.763077 21.391357 65.775000 21.674613 66.786923 21.957485 67.798846 22.239965 68.810769 22.522045 69.822692 22.803716 70.834615 23.084969 71.846538 23.365797 72.858462 23.646190 73.870385 23.926141 74.882308 24.205640 75.894231 24.484679 76.906154 24.763249 77.918077 25.041343 78.930000 25.318951 79.941923 25.596065 80.953846 25.872676 81.965769 26.148777 82.977692 26.424357 83.989615 26.699410 85.001538 26.973926 86.013462 27.247897 87.025385 27.521314 88.037308 27.794169 89.049231 28.066454 90.061154 28.338159 91.073077 28.609277 92.085000 28.879798 93.096923 29.149714 94.108846 29.419017 95.120769 29.687699 96.132692 29.955750 97.144615 30.223162 98.156538 30.489927 99.168462 30.756036 100.180385 31.021481 101.192308 31.286253 102.204231 31.550343 103.216154 31.813743 104.228077 32.076445 105.240000 32.338440 106.251923 32.599720 107.263846 32.860275 108.275769 33.120098 109.287692 33.379180 110.299615 33.637513 111.311538 33.895087 112.323462 34.151895 113.335385 34.407927 114.347308 34.663176 115.359231 34.917633 116.371154 35.171289 117.383077 35.424136 118.395000 35.676165 119.406923 35.927368 120.418846 36.177736 121.430769 36.427261 122.442692 36.675935 123.454615 36.923748 124.466538 37.170692 125.478462 37.416759 126.490385 37.661940 127.502308 37.906226 128.514231 38.149610 129.526154 38.392082 130.538077 38.633635 131.550000 38.874259 132.561923 39.113946 133.573846 39.352687 134.585769 39.590475 135.597692 39.827300 136.609615 40.063154 137.621538 40.298028 138.633462 40.531915 139.645385 40.764805 140.657308 40.996689 141.669231 41.227560 142.681154 41.457409 143.693077 41.686228 144.705000 41.914007 145.716923 42.140739 146.728846 42.366414 147.740769 42.591024 148.752692 42.814562 149.764615 43.037017 150.776538 43.258383 151.788462 43.478649 152.800385 43.697809 153.812308 43.915852 154.824231 44.132771 155.836154 44.348557 156.848077 44.563202 157.860000 44.776697 158.871923 44.989034 159.883846 45.200203 160.895769 45.410197 161.907692 45.619008 162.919615 45.826625 163.931538 46.033042 164.943462 46.238249 165.955385 46.442238 166.967308 46.645001 167.979231 46.846528 168.991154 47.046812 170.003077 47.245844 171.015000 47.443615 172.026923 47.640117 173.038846 47.835342 174.050769 48.029280 175.062692 48.221924 176.074615 48.413264 177.086538 48.603292 178.098462 48.792001 179.110385 48.979380 180.122308 49.165423 181.134231 49.350119 182.146154 49.533461 183.158077 49.715440 184.170000 49.896048 185.181923 50.075276 186.193846 50.253116 187.205769 50.429559 188.217692 50.604596 189.229615 50.778220 190.241538 50.950421 191.253462 51.121190 192.265385 51.290521 193.277308 51.458403 194.289231 51.624829 195.301154 51.789790 196.313077 51.953277 197.325000 52.115283 198.336923 52.275797 199.348846 52.434813 200.360769 52.592320 201.372692 52.748312 202.384615 52.902779 203.396538 53.055713 204.408462 53.207105 205.420385 53.356947 206.432308 53.505230 207.444231 53.651946 208.456154 53.797086 209.468077 53.940641 210.480000 54.082604 211.491923 54.222966 212.503846 54.361718 213.515769 54.498851 214.527692 54.634358 215.539615 54.768229 216.551538 54.900456 217.563462 55.031030 218.575385 55.159944 219.587308 55.287188 220.599231 55.412755 221.611154 55.536634 222.623077 55.658819 223.635000 55.779300 224.646923 55.898070 225.658846 56.015118 226.670769 56.130437 227.682692 56.244019 228.694615 56.355855 229.706538 56.465936 230.718462 56.574254 231.730385 56.680800 232.742308 56.785566 233.754231 56.888543 234.766154 56.989723 235.778077 57.089097 236.790000 57.186657 237.801923 57.282394 238.813846 57.376300 239.825769 57.468366 240.837692 57.558584 241.849615 57.646944 242.861538 57.733440 243.873462 57.818061 244.885385 57.900800 245.897308 57.981648 246.909231 58.060597 247.921154 58.137638 248.933077 58.212762 249.945000 58.285961 250.956923 58.357227 251.968846 58.426550 252.980769 58.493923 253.992692 58.559337 255.004615 58.622784 256.016538 58.684254 257.028462 58.743740 258.040385 58.801232 259.052308 58.856723 260.064231 58.910203 261.076154 58.961665 262.088077 59.011100 263.100000 59.058499 264.111923 59.103854 265.123846 59.147156 266.135769 59.188396 267.147692 59.227567 268.159615 59.264659 269.171538 59.299665 270.183462 59.332575 271.195385 59.363382 272.207308 59.392076 273.219231 59.418649 274.231154 59.443096 275.243077 59.465428 276.255000 59.485660 277.266923 59.503806 278.278846 59.519880 279.290769 59.533896 280.302692 59.545870 281.314615 59.555815 282.326538 59.563747 283.338462 59.569678 284.350385 59.573624 285.362308 59.575600 286.374231 59.575619 287.386154 59.573697 288.398077 59.569846 289.410000 59.564083 290.421923 59.556421 291.433846 59.546875 292.445769 59.535459 293.457692 59.522188 294.469615 59.507075 295.481538 59.490137 296.493462 59.471386 297.505385 59.450837 298.517308 59.428505 299.529231 59.404404 300.541154 59.378549 301.553077 59.350954 302.565000 59.321633 303.576923 59.290601 304.588846 59.257873 305.600769 59.223462 306.612692 59.187383 307.624615 59.149651 308.636538 59.110279 309.648462 59.069284 310.660385 59.026678 311.672308 58.982476 312.684231 58.936693 313.696154 58.889342 314.708077 58.840440 315.720000 58.789999 316.731923 58.738035 317.743846 58.684562 318.755769 58.629593 319.767692 58.573145 320.779615 58.515230 321.791538 58.455864 322.803462 58.395061 323.815385 58.332835 324.827308 58.269201 325.839231 58.204173 326.851154 58.137766 327.863077 58.069993 328.875000 58.000870 329.886923 57.930411 330.898846 57.858631 331.910769 57.785543 332.922692 57.711162 333.934615 57.635503 334.946538 57.558579 335.958462 57.480406 336.970385 57.400998 337.982308 57.320369 338.994231 57.238534 340.006154 57.155507 341.018077 57.071303 342.030000 56.985935 343.041923 56.899419 344.053846 56.811769 345.065769 56.722999 346.077692 56.633123 347.089615 56.542157 348.101538 56.450114 349.113462 56.357009 350.125385 56.262856 351.137308 56.167671 352.149231 56.071466 353.161154 55.974257 354.173077 55.876058 355.185000 55.776883 356.196923 55.676748 357.208846 55.575665 358.220769 55.473651 359.232692 55.370718 360.244615 55.266882 361.256538 55.162157 362.268462 55.056558 363.280385 54.950098 364.292308 54.842793 365.304231 54.734656 366.316154 54.625703 367.328077 54.515947 368.340000 54.405403 369.351923 54.294085 370.363846 54.182009 371.375769 54.069187 372.387692 53.955635 373.399615 53.841367 374.411538 53.726398 375.423462 53.610742 376.435385 53.494413 377.447308 53.377426 378.459231 53.259795 379.471154 53.141534 380.483077 53.022659 381.495000 52.903183 382.506923 52.783121 383.518846 52.662488 384.530769 52.541297 385.542692 52.419563 386.554615 52.297301 387.566538 52.174525 388.578462 52.051250 389.590385 51.927489 390.602308 51.803258 391.614231 51.678570 392.626154 51.553441 393.638077 51.427884 394.650000 51.301914 395.661923 51.175545 396.673846 51.048792 397.685769 50.921670 398.697692 50.794192 399.709615 50.666373 400.721538 50.538228 401.733462 50.409771 402.745385 50.281016 403.757308 50.151978 404.769231 50.022671 405.781154 49.893110 406.793077 49.763309 407.805000 49.633282 408.816923 49.503045 409.828846 49.372611 410.840769 49.241994 411.852692 49.111210 412.864615 48.980272 413.876538 48.849195 414.888462 48.717994 415.900385 48.586683 416.912308 48.455276 417.924231 48.323787 418.936154 48.192232 419.948077 48.060625 420.960000 47.928979 421.971923 47.797310 422.983846 47.665632 423.995769 47.533959 425.007692 47.402305 426.019615 47.270686 427.031538 47.139116 428.043462 47.007608 429.055385 46.876178 430.067308 46.744839 431.079231 46.613607 432.091154 46.482496 433.103077 46.351519 434.115000 46.220692 435.126923 46.090029 436.138846 45.959545 437.150769 45.829253 438.162692 45.699168 439.174615 45.569305 440.186538 45.439678 441.198462 45.310302 442.210385 45.181190 443.222308 45.052358 444.234231 44.923820 445.246154 44.795589 446.258077 44.667682 447.270000 44.540111 448.281923 44.412892 449.293846 44.286038 450.305769 44.159565 451.317692 44.033487 452.329615 43.907818 453.341538 43.782572 454.353462 43.657764 455.365385 43.533409 456.377308 43.409521 457.389231 43.286114 458.401154 43.163202 459.413077 43.040801 460.425000 42.918924 461.436923 42.797586 462.448846 42.676802 463.460769 42.556585 464.472692 42.436951 465.484615 42.317913 466.496538 42.199486 467.508462 42.081685 468.520385 41.964524 469.532308 41.848017 470.544231 41.732178 471.556154 41.617023 472.568077 41.502566 473.580000 41.388821 474.591923 41.275802 475.603846 41.163524 476.615769 41.052001 477.627692 40.941248 478.639615 40.831279 479.651538 40.722109 480.663462 40.613752 481.675385 40.506222 482.687308 40.399534 483.699231 40.293703 484.711154 40.188742 485.723077 40.084666 486.735000 39.981490 487.746923 39.879227 488.758846 39.777894 489.770769 39.677502 490.782692 39.578069 491.794615 39.479607 492.806538 39.382130 493.818462 39.285655 494.830385 39.190194 495.842308 39.095763 496.854231 39.002376 497.866154 38.910046 498.878077 38.818790 499.890000 38.728620 500.901923 38.639552 501.913846 38.551600 502.925769 38.464778 503.937692 38.379101 504.949615 38.294583 505.961538 38.211239 506.973462 38.129082 507.985385 38.048129 508.997308 37.968392 510.009231 37.889886 511.021154 37.812626 512.033077 37.736626 513.045000 37.661901 514.056923 37.588465 515.068846 37.516332 516.080769 37.445517 517.092692 37.376034 518.104615 37.307898 519.116538 37.241123 520.128462 37.175723 521.140385 37.111714 522.152308 37.049109 523.164231 36.987923 524.176154 36.928170 525.188077 36.869864 526.200000 36.813021 527.211923 36.757650 528.223846 36.703747 529.235769 36.651304 530.247692 36.600311 531.259615 36.550759 532.271538 36.502642 533.283462 36.455948 534.295385 36.410671 535.307308 36.366801 536.319231 36.324330 537.331154 36.283248 538.343077 36.243548 539.355000 36.205221 540.366923 36.168258 541.378846 36.132650 542.390769 36.098390 543.402692 36.065467 544.414615 36.033874 545.426538 36.003601 546.438462 35.974641 547.450385 35.946985 548.462308 35.920623 549.474231 35.895547 550.486154 35.871750 551.498077 35.849221 552.510000 35.827952 553.521923 35.807935 554.533846 35.789161 555.545769 35.771622 556.557692 35.755308 557.569615 35.740212 558.581538 35.726323 559.593462 35.713635 560.605385 35.702138 561.617308 35.691823 562.629231 35.682682 563.641154 35.674706 564.653077 35.667887 565.665000 35.662216 566.676923 35.657684 567.688846 35.654283 568.700769 35.652003 569.712692 35.650837 570.724615 35.650776 571.736538 35.651810 572.748462 35.653932 573.760385 35.657133 574.772308 35.661404 575.784231 35.666736 576.796154 35.673121 577.808077 35.680550 578.820000 35.689015 579.831923 35.698506 580.843846 35.709016 581.855769 35.720535 582.867692 35.733056 583.879615 35.746568 584.891538 35.761064 585.903462 35.776535 586.915385 35.792972 587.927308 35.810367 588.939231 35.828711 589.951154 35.847996 590.963077 35.868212 591.975000 35.889351 592.986923 35.911405 593.998846 35.934364 595.010769 35.958221 596.022692 35.982966 597.034615 36.008591 598.046538 36.035087 599.058462 36.062446 600.070385 36.090658 601.082308 36.119716 602.094231 36.149611 603.106154 36.180333 604.118077 36.211875 605.130000 36.244227 606.141923 36.277382 607.153846 36.311330 608.165769 36.346062 609.177692 36.381571 610.189615 36.417847 611.201538 36.454882 612.213462 36.492667 613.225385 36.531193 614.237308 36.570453 615.249231 36.610436 616.261154 36.651135 617.273077 36.692541 618.285000 36.734645 619.296923 36.777439 620.308846 36.820914 621.320769 36.865061 622.332692 36.909872 623.344615 36.955338 624.356538 37.001450 625.368462 37.048200 626.380385 37.095579 627.392308 37.143579 628.404231 37.192190 629.416154 37.241404 630.428077 37.291213 631.440000 37.341608 632.451923 37.392580 633.463846 37.444120 634.475769 37.496221 635.487692 37.548873 636.499615 37.602067 637.511538 37.655795 638.523462 37.710049 639.535385 37.764819 640.547308 37.820097 641.559231 37.875875 642.571154 37.932143 643.583077 37.988893 644.595000 38.046117 645.606923 38.103806 646.618846 38.161951 647.630769 38.220543 648.642692 38.279574 649.654615 38.339035 650.666538 38.398918 651.678462 38.459214 652.690385 38.519914 653.702308 38.581010 654.714231 38.642492 655.726154 38.704353 656.738077 38.766584 657.750000 38.829176 658.761923 38.892120 659.773846 38.955407 660.785769 39.019030 661.797692 39.082979 662.809615 39.147246 663.821538 39.211822 664.833462 39.276699 665.845385 39.341868 666.857308 39.407319 667.869231 39.473046 668.881154 39.539038 669.893077 39.605287 670.905000 39.671785 671.916923 39.738523 672.928846 39.805492 673.940769 39.872684 674.952692 39.940090 675.964615 40.007702 676.976538 40.075510 677.988462 40.143506 679.000385 40.211681 680.012308 40.280028 681.024231 40.348536 682.036154 40.417198 683.048077 40.486005 684.060000 40.554948 685.071923 40.624019 686.083846 40.693208 687.095769 40.762508 688.107692 40.831909 689.119615 40.901404 690.131538 40.970982 691.143462 41.040637 692.155385 41.110358 693.167308 41.180138 694.179231 41.249967 695.191154 41.319838 696.203077 41.389741 697.215000 41.459667 698.226923 41.529609 699.238846 41.599558 700.250769 41.669504 701.262692 41.739439 702.274615 41.809355 703.286538 41.879243 704.298462 41.949094 705.310385 42.018900 706.322308 42.088651 707.334231 42.158340 708.346154 42.227958 709.358077 42.297496 710.370000 42.366945 711.381923 42.436296 712.393846 42.505542 713.405769 42.574673 714.417692 42.643682 715.429615 42.712558 716.441538 42.781293 717.453462 42.849880 718.465385 42.918309 719.477308 42.986571 720.489231 43.054658 721.501154 43.122561 722.513077 43.190272 723.525000 43.257782 724.536923 43.325083 725.548846 43.392165 726.560769 43.459020 727.572692 43.525639 728.584615 43.592014 729.596538 43.658136 730.608462 43.723997 731.620385 43.789587 732.632308 43.854899 733.644231 43.919923 734.656154 43.984651 735.668077 44.049074 736.680000 44.113183 737.691923 44.176971 738.703846 44.240427 739.715769 44.303545 740.727692 44.366314 741.739615 44.428727 742.751538 44.490774 743.763462 44.552447 744.775385 44.613738 745.787308 44.674637 746.799231 44.735137 747.811154 44.795228 748.823077 44.854901 749.835000 44.914149 750.846923 44.972962 751.858846 45.031332 752.870769 45.089251 753.882692 45.146709 754.894615 45.203697 755.906538 45.260208 756.918462 45.316233 757.930385 45.371763 758.942308 45.426789 759.954231 45.481302 760.966154 45.535295 761.978077 45.588758 762.990000 45.641682 764.001923 45.694060 765.013846 45.745882 766.025769 45.797140 767.037692 45.847825 768.049615 45.897929 769.061538 45.947442 770.073462 45.996357 771.085385 46.044664 772.097308 46.092355 773.109231 46.139421 774.121154 46.185854 775.133077 46.231645 776.145000 46.276785 777.156923 46.321266 778.168846 46.365079 779.180769 46.408215 780.192692 46.450668 781.204615 46.492438 782.216538 46.533529 783.228462 46.573942 784.240385 46.613682 785.252308 46.652749 786.264231 46.691148 787.276154 46.728881 788.288077 46.765950 789.300000 46.802359 790.311923 46.838109 791.323846 46.873205 792.335769 46.907648 793.347692 46.941442 794.359615 46.974589 795.371538 47.007092 796.383462 47.038953 797.395385 47.070175 798.407308 47.100762 799.419231 47.130715 800.431154 47.160038 801.443077 47.188733 802.455000 47.216804 803.466923 47.244252 804.478846 47.271080 805.490769 47.297292 806.502692 47.322890 807.514615 47.347876 808.526538 47.372254 809.538462 47.396026 810.550385 47.419195 811.562308 47.441764 812.574231 47.463735 813.586154 47.485112 814.598077 47.505896 815.610000 47.526091 816.621923 47.545700 817.633846 47.564724 818.645769 47.583168 819.657692 47.601033 820.669615 47.618322 821.681538 47.635039 822.693462 47.651185 823.705385 47.666764 824.717308 47.681778 825.729231 47.696231 826.741154 47.710124 827.753077 47.723461 828.765000 47.736244 829.776923 47.748476 830.788846 47.760160 831.800769 47.771298 832.812692 47.781894 833.824615 47.791949 834.836538 47.801468 835.848462 47.810452 836.860385 47.818904 837.872308 47.826827 838.884231 47.834224 839.896154 47.841097 840.908077 47.847449 841.920000 47.853283 842.931923 47.858602 843.943846 47.863409 844.955769 47.867705 845.967692 47.871495 846.979615 47.874780 847.991538 47.877563 849.003462 47.879848 850.015385 47.881636 851.027308 47.882932 852.039231 47.883736 853.051154 47.884052 854.063077 47.883884 855.075000 47.883233 856.086923 47.882102 857.098846 47.880494 858.110769 47.878412 859.122692 47.875858 860.134615 47.872836 861.146538 47.869348 862.158462 47.865397 863.170385 47.860985 864.182308 47.856115 865.194231 47.850790 866.206154 47.845013 867.218077 47.838787 868.230000 47.832113 869.241923 47.824996 870.253846 47.817437 871.265769 47.809440 872.277692 47.801007 873.289615 47.792140 874.301538 47.782844 875.313462 47.773119 876.325385 47.762970 877.337308 47.752399 878.349231 47.741409 879.361154 47.730001 880.373077 47.718180 881.385000 47.705948 882.396923 47.693307 883.408846 47.680261 884.420769 47.666811 885.432692 47.652962 886.444615 47.638714 887.456538 47.624073 888.468462 47.609039 889.480385 47.593616 890.492308 47.577806 891.504231 47.561613 892.516154 47.545039 893.528077 47.528086 894.540000 47.510758 895.551923 47.493057 896.563846 47.474987 897.575769 47.456548 898.587692 47.437746 899.599615 47.418581 900.611538 47.399057 901.623462 47.379177 902.635385 47.358944 903.647308 47.338359 904.659231 47.317426 905.671154 47.296148 906.683077 47.274528 907.695000 47.252567 908.706923 47.230269 909.718846 47.207637 910.730769 47.184674 911.742692 47.161381 912.754615 47.137762 913.766538 47.113819 914.778462 47.089556 915.790385 47.064975 916.802308 47.040079 917.814231 47.014870 918.826154 46.989352 919.838077 46.963526 920.850000 46.937396 921.861923 46.910965 922.873846 46.884235 923.885769 46.857209 924.897692 46.829890 925.909615 46.802280 926.921538 46.774382 927.933462 46.746199 928.945385 46.717734 929.957308 46.688989 930.969231 46.659967 931.981154 46.630671 932.993077 46.601104 934.005000 46.571269 935.016923 46.541167 936.028846 46.510802 937.040769 46.480177 938.052692 46.449294 939.064615 46.418156 940.076538 46.386766 941.088462 46.355127 942.100385 46.323241 943.112308 46.291111 944.124231 46.258739 945.136154 46.226130 946.148077 46.193284 947.160000 46.160206 948.171923 46.126897 949.183846 46.093361 950.195769 46.059599 951.207692 46.025616 952.219615 45.991414 953.231538 45.956995 954.243462 45.922362 955.255385 45.887519 956.267308 45.852467 957.279231 45.817209 958.291154 45.781748 959.303077 45.746088 960.315000 45.710230 961.326923 45.674177 962.338846 45.637933 963.350769 45.601499 964.362692 45.564879 965.374615 45.528075 966.386538 45.491091 967.398462 45.453928 968.410385 45.416590 969.422308 45.379079 970.434231 45.341398 971.446154 45.303550 972.458077 45.265537 973.470000 45.227363 974.481923 45.189030 975.493846 45.150541 976.505769 45.111898 977.517692 45.073104 978.529615 45.034162 979.541538 44.995075 980.553462 44.955846 981.565385 44.916476 982.577308 44.876970 983.589231 44.837329 984.601154 44.797557 985.613077 44.757656 986.625000 44.717628 987.636923 44.677478 988.648846 44.637207 989.660769 44.596818 990.672692 44.556313 991.684615 44.515697 992.696538 44.474971 993.708462 44.434138 994.720385 44.393200 995.732308 44.352162 996.744231 44.311024 997.756154 44.269791 998.768077 44.228464 999.780000 44.187047 1000.791923 44.145543 1001.803846 44.103953 1002.815769 44.062281 1003.827692 44.020530 1004.839615 43.978702 1005.851538 43.936800 1006.863462 43.894826 1007.875385 43.852784 1008.887308 43.810676 1009.899231 43.768506 1010.911154 43.726275 1011.923077 43.683986 1012.935000 43.641643 1013.946923 43.599247 1014.958846 43.556802 1015.970769 43.514311 1016.982692 43.471775 1017.994615 43.429199 1019.006538 43.386584 1020.018462 43.343934 1021.030385 43.301250 1022.042308 43.258537 1023.054231 43.215796 1024.066154 43.173030 1025.078077 43.130243 1026.090000 43.087436 1027.101923 43.044613 1028.113846 43.001776 1029.125769 42.958928 1030.137692 42.916072 1031.149615 42.873210 1032.161538 42.830346"/></g></g><g class="titles"><text class="title plot_title" x="600.0" y="26">Example 1b average daily temperature</text></g><g class="plot overlay" transform="translate(127, 46)"><g class="series serie-0 color-0"><g class="ci"><path class="nofill reactive" d="M20.238462 1.522221 L27.238462 1.522221 M20.238462 1.522221 L13.238462 1.522221 M20.238462 1.522221 L20.238462 16.321588 L27.238462 16.321588 M20.238462 16.321588 L13.238462 16.321588"/></g><g class="dots"><circle class="dot reactive tooltip-trigger" cx="20.23846153846154" cy="8.677958963117419" r="2.5"/><desc class="value">26.68</desc><desc class="x ">20.23846153846154</desc><desc class="y ">8.677958963117419</desc><desc class="x_label">2018-03-11</desc></g><g class="ci"><path class="nofill reactive" d="M273.219231 18.273153 L280.219231 18.273153 M273.219231 18.273153 L266.219231 18.273153 M273.219231 18.273153 L273.219231 124.308184 L280.219231 124.308184 M273.219231 124.308184 L266.219231 124.308184"/></g><g class="dots"><circle class="dot reactive tooltip-trigger" cx="273.21923076923076" cy="59.41864855255977" r="2.5"/><desc class="value">23.56</desc><desc class="x ">273.21923076923076</desc><desc class="y ">59.41864855255977</desc><desc class="x_label">2018-03-12</desc></g><g class="ci"><path class="nofill reactive" d="M526.200000 -4.007213 L533.200000 -4.007213 M526.200000 -4.007213 L519.200000 -4.007213 M526.200000 -4.007213 L526.200000 119.917163 L533.200000 119.917163 M526.200000 119.917163 L519.200000 119.917163"/></g><g class="dots"><circle class="dot reactive tooltip-trigger" cx="526.2" cy="36.813020818801874" r="2.5"/><desc class="value">24.95</desc><desc class="x ">526.2</desc><desc class="y ">36.813020818801874</desc><desc class="x_label">2018-03-13</desc></g><g class="ci"><path class="nofill reactive" d="M779.180769 4.286938 L786.180769 4.286938 M779.180769 4.286938 L772.180769 4.286938 M779.180769 4.286938 L779.180769 133.090227 L786.180769 133.090227 M779.180769 133.090227 L772.180769 133.090227"/></g><g class="dots"><circle class="dot reactive tooltip-trigger" cx="779.1807692307692" cy="46.40821532449763" r="2.5"/><desc class="value">24.36</desc><desc class="x left">779.1807692307692</desc><desc class="y left">46.40821532449763</desc><desc class="x_label">2018-03-14</desc></g><g class="ci"><path class="nofill reactive" d="M1032.161538 -28.401776 L1039.161538 -28.401776 M1032.161538 -28.401776 L1025.161538 -28.401776 M1032.161538 -28.401776 L1032.161538 101.702557 L1039.161538 101.702557 M1032.161538 101.702557 L1025.161538 101.702557"/></g><g class="dots"><circle class="dot reactive tooltip-trigger" cx="1032.1615384615386" cy="42.830346186780616" r="2.5"/><desc class="value">24.58</desc><desc class="x left">1032.1615384615386</desc><desc class="y left">42.830346186780616</desc><desc class="x_label">2018-03-15</desc></g></g></g><g class="plot text-overlay" transform="translate(127, 46)"><g class="series serie-0 color-0"/></g><g class="plot tooltip-overlay" transform="translate(127, 46)"><g class="tooltip" style="opacity: 0" transform="translate(0 0)"><rect class="tooltip-box" height="0" rx="0" ry="0" width="0"/><g class="text"/></g></g><g class="legends" transform="translate(10, 56)"><g class="legend reactive activate-serie" id="activate-serie-0"><rect class="color-0 reactive" height="12" width="12" x="0.0" y="1.0"/><text x="17.0" y="11.2">Celcius</text></g></g><g class="legends" transform="translate(1190, 56)"/></g></svg>