<?xml version='1.0' encoding='utf-8'?>
<svg xmlns:xlink="http://www.w3.org/1999/xlink" xmlns="http://www.w3.org/2000/svg" id="chart-10c66160-243e-40d6-a373-9727689277a4" class="pygal-chart" viewBox="0 0 1200 600"><!--Generated with pygal 3.0.1 (lxml) ©Kozea 2012-2016 on 2024-04-07--><!--http://pygal.org--><!--http://github.com/Kozea/pygal--><defs><style type="text/css">#chart-10c66160-243e-40d6-a373-9727689277a4{-webkit-user-select:none;-webkit-font-smoothing:antialiased;font-family:Roboto,Helvetica,Arial,sans-serif}#chart-10c66160-243e-40d6-a373-9727689277a4 .title{font-family:Roboto,Helvetica,Arial,sans-serif;font-size:16px}#chart-10c66160-243e-40d6-a373-9727689277a4 .legends .legend text{font-family:Roboto,Helvetica,Arial,sans-serif;font-size:14px}#chart-10c66160-243e-40d6-a373-9727689277a4 .axis text{font-family:Roboto,Helvetica,Arial,sans-serif;font-size:14px}#chart-10c66160-243e-40d6-a373-9727689277a4 .axis text.major{font-family:Roboto,Helvetica,Arial,sans-serif;font-size:10px}#chart-10c66160-243e-40d6-a373-9727689277a4 .text-overlay text.value{font-family:Roboto,Helvetica,Arial,sans-serif;font-size:16px}#chart-10c66160-243e-40d6-a373-9727689277a4 .text-overlay text.label{font-family:Roboto,Helvetica,Arial,sans-serif;font-size:10px}#chart-10c66160-243e-40d6-a373-9727689277a4 .tooltip{font-family:Roboto,Helvetica,Arial,sans-serif;font-size:14px}#chart-10c66160-243e-40d6-a373-9727689277a4 text.no_data{font-family:Roboto,Helvetica,Arial,sans-serif;font-size:64px}
#chart-10c66160-243e-40d6-a373-9727689277a4{background-color:transparent}#chart-10c66160-243e-40d6-a373-9727689277a4 path,#chart-10c66160-243e-40d6-a373-9727689277a4 line,#chart-10c66160-243e-40d6-a373-9727689277a4 rect,#chart-10c66160-243e-40d6-a373-9727689277a4 circle{-webkit-transition:150ms;-moz-transition:150ms;transition:150ms}#chart-10c66160-243e-40d6-a373-9727689277a4 .graph &gt; .background{fill:transparent}#chart-10c66160-243e-40d6-a373-9727689277a4 .plot &gt; .background{fill:rgba(255,255,255,1)}#chart-10c66160-243e-40d6-a373-9727689277a4 .graph{fill:rgba(0,0,0,.87)}#chart-10c66160-243e-40d6-a373-9727689277a4 text.no_data{fill:rgba(0,0,0,1)}#chart-10c66160-243e-40d6-a373-9727689277a4 .title{fill:rgba(0,0,0,1)}#chart-10c66160-243e-40d6-a373-9727689277a4 .legends .legend text{fill:rgba(0,0,0,.87)}#chart-10c66160-243e-40d6-a373-9727689277a4 .legends .legend:hover text{fill:rgba(0,0,0,1)}#chart-10c66160-243e-40d6-a373-9727689277a4 .axis .line{stroke:rgba(0,0,0,1)}#chart-10c66160-243e-40d6-a373-9727689277a4 .axis .guide.line{stroke:rgba(0,0,0,.54)}#chart-10c66160-243e-40d6-a373-9727689277a4 .axis .major.line{stroke:rgba(0,0,0,.87)}#chart-10c66160-243e-40d6-a373-9727689277a4 .axis text.major{fill:rgba(0,0,0,1)}#chart-10c66160-243e-40d6-a373-9727689277a4 .axis.y .guides:hover .guide.line,#chart-10c66160-243e-40d6-a373-9727689277a4 .line-graph .axis.x .guides:hover .guide.line,#chart-10c66160-243e-40d6-a373-9727689277a4 .stackedline-graph .axis.x .guides:hover .guide.line,#chart-10c66160-243e-40d6-a373-9727689277a4 .xy-graph .axis.x .guides:hover .guide.line{stroke:rgba(0,0,0,1)}#chart-10c66160-243e-40d6-a373-9727689277a4 .axis .guides:hover text{fill:rgba(0,0,0,1)}#chart-10c66160-243e-40d6-a373-9727689277a4 .reactive{fill-opacity:.7;stroke-opacity:.8;stroke-width:1}#chart-10c66160-243e-40d6-a373-9727689277a4 .ci{stroke:rgba(0,0,0,.87)}#chart-10c66160-243e-40d6-a373-9727689277a4 .reactive.active,#chart-10c66160-243e-40d6-a373-9727689277a4 .active .reactive{fill-opacity:.8;stroke-opacity:.9;stroke-width:4}#chart-10c66160-243e-40d6-a373-9727689277a4 .ci .reactive.active{stroke-width:1.5}#chart-10c66160-243e-40d6-a373-9727689277a4 .series text{fill:rgba(0,0,0,1)}#chart-10c66160-243e-40d6-a373-9727689277a4 .tooltip rect{fill:rgba(255,255,255,1);stroke:rgba(0,0,0,1);-webkit-transition:opacity 150ms;-moz-transition:opacity 150ms;transition:opacity 150ms}#chart-10c66160-243e-40d6-a373-9727689277a4 .tooltip .label{fill:rgba(0,0,0,.87)}#chart-10c66160-243e-40d6-a373-9727689277a4 .tooltip .label{fill:rgba(0,0,0,.87)}#chart-10c66160-243e-40d6-a373-9727689277a4 .tooltip .legend{font-size:.8em;fill:rgba(0,0,0,.54)}#chart-10c66160-243e-40d6-a373-9727689277a4 .tooltip .x_label{font-size:.6em;fill:rgba(0,0,0,1)}#chart-10c66160-243e-40d6-a373-9727689277a4 .tooltip .xlink{font-size:.5em;text-decoration:underline}#chart-10c66160-243e-40d6-a373-9727689277a4 .tooltip .value{font-size:1.5em}#chart-10c66160-243e-40d6-a373-9727689277a4 .bound{font-size:.5em}#chart-10c66160-243e-40d6-a373-9727689277a4 .max-value{font-size:.75em;fill:rgba(0,0,0,.54)}#chart-10c66160-243e-40d6-a373-9727689277a4 .map-element{fill:rgba(255,255,255,1);stroke:rgba(0,0,0,.54) !important}#chart-10c66160-243e-40d6-a373-9727689277a4 .map-element .reactive{fill-opacity:inherit;stroke-opacity:inherit}#chart-10c66160-243e-40d6-a373-9727689277a4 .color-0,#chart-10c66160-243e-40d6-a373-9727689277a4 .color-0 a:visited{stroke:#0343df;fill:#0343df}#chart-10c66160-243e-40d6-a373-9727689277a4 .text-overlay .color-0 text{fill:black}
#chart-10c66160-243e-40d6-a373-9727689277a4 text.no_data{text-anchor:middle}#chart-10c66160-243e-40d6-a373-9727689277a4 .guide.line{fill:none}#chart-10c66160-243e-40d6-a373-9727689277a4 .centered{text-anchor:middle}#chart-10c66160-243e-40d6-a373-9727689277a4 .title{text-anchor:middle}#chart-10c66160-243e-40d6-a373-9727689277a4 .legends .legend text{fill-opacity:1}#chart-10c66160-243e-40d6-a373-9727689277a4 .axis.x text{text-anchor:middle}#chart-10c66160-243e-40d6-a373-9727689277a4 .axis.x:not(.web) text[transform]{text-anchor:start}#chart-10c66160-243e-40d6-a373-9727689277a4 .axis.x:not(.web) text[transform].backwards{text-anchor:end}#chart-10c66160-243e-40d6-a373-9727689277a4 .axis.y text{text-anchor:end}#chart-10c66160-243e-40d6-a373-9727689277a4 .axis.y text[transform].backwards{text-anchor:start}#chart-10c66160-243e-40d6-a373-9727689277a4 .axis.y2 text{text-anchor:start}#chart-10c66160-243e-40d6-a373-9727689277a4 .axis.y2 text[transform].backwards{text-anchor:end}#chart-10c66160-243e-40d6-a373-9727689277a4 .axis .guide.line{stroke-dasharray:4,4;stroke:black}#chart-10c66160-243e-40d6-a373-9727689277a4 .axis .major.guide.line{stroke-dasharray:6,6;stroke:black}#chart-10c66160-243e-40d6-a373-9727689277a4 .horizontal .axis.y .guide.line,#chart-10c66160-243e-40d6-a373-9727689277a4 .horizontal .axis.y2 .guide.line,#chart-10c66160-243e-40d6-a373-9727689277a4 .vertical .axis.x .guide.line{opacity:0}#chart-10c66160-243e-40d6-a373-9727689277a4 .horizontal .axis.always_show .guide.line,#chart-10c66160-243e-40d6-a373-9727689277a4 .vertical .axis.always_show .guide.line{opacity:1 !important}#chart-10c66160-243e-40d6-a373-9727689277a4 .axis.y .guides:hover .guide.line,#chart-10c66160-243e-40d6-a373-9727689277a4 .axis.y2 .guides:hover .guide.line,#chart-10c66160-243e-40d6-a373-9727689277a4 .axis.x .guides:hover .guide.line{opacity:1}#chart-10c66160-243e-40d6-a373-9727689277a4 .axis .guides:hover text{opacity:1}#chart-10c66160-243e-40d6-a373-9727689277a4 .nofill{fill:none}#chart-10c66160-243e-40d6-a373-9727689277a4 .subtle-fill{fill-opacity:.2}#chart-10c66160-243e-40d6-a373-9727689277a4 .dot{stroke-width:1px;fill-opacity:1;stroke-opacity:1}#chart-10c66160-243e-40d6-a373-9727689277a4 .dot.active{stroke-width:5px}#chart-10c66160-243e-40d6-a373-9727689277a4 .dot.negative{fill:transparent}#chart-10c66160-243e-40d6-a373-9727689277a4 text,#chart-10c66160-243e-40d6-a373-9727689277a4 tspan{stroke:none !important}#chart-10c66160-243e-40d6-a373-9727689277a4 .series text.active{opacity:1}#chart-10c66160-243e-40d6-a373-9727689277a4 .tooltip rect{fill-opacity:.95;stroke-width:.5}#chart-10c66160-243e-40d6-a373-9727689277a4 .tooltip text{fill-opacity:1}#chart-10c66160-243e-40d6-a373-9727689277a4 .showable{visibility:hidden}#chart-10c66160-243e-40d6-a373-9727689277a4 .showable.shown{visibility:visible}#chart-10c66160-243e-40d6-a373-9727689277a4 .gauge-background{fill:rgba(229,229,229,1);stroke:none}#chart-10c66160-243e-40d6-a373-9727689277a4 .bg-lines{stroke:transparent;stroke-width:2px}</style><script type="text/javascript">window.pygal = window.pygal || {};window.pygal.config = window.pygal.config || {};window.pygal.config['10c66160-243e-40d6-a373-9727689277a4'] = {"allow_interruptions": false, "box_mode": "extremes", "classes": ["pygal-chart"], "css": ["file://style.css", "file://graph.css"], "defs": [], "disable_xml_declaration": false, "dots_size": 2.5, "dynamic_print_values": false, "explicit_size": false, "fill": false, "force_uri_protocol": "https", "formatter": null, "half_pie": false, "height": 600, "include_x_axis": false, "inner_radius": 0, "interpolate": "cubic", "interpolation_parameters": {}, "interpolation_precision": 250, "inverse_y_axis": false, "js": ["//kozea.github.io/pygal.js/2.0.x/pygal-tooltips.min.js"], "legend_at_bottom": false, "legend_at_bottom_columns": null, "legend_box_size": 12, "logarithmic": false, "margin": 20, "margin_bottom": null, "margin_left": null, "margin_right": null, "margin_top": null, "max_scale": 16, "min_scale": 4, "missing_value_fill_truncation": "x", "no_data_text": "No data", "no_prefix": false, "order_min": null, "pretty_print": false, "print_labels": false, "print_values": false, "print_values_position": "center", "print_zeroes": true, "range": null, "rounded_bars": null, "secondary_range": null, "show_dots": true, "show_legend": true, "show_minor_x_labels": true, "show_minor_y_labels": true, "show_only_major_dots": false, "show_x_guides": false, "show_x_labels": true, "show_y_guides": true, "show_y_labels": true, "spacing": 10, "stack_from_top": false, "strict": false, "stroke": true, "stroke_style": null, "style": {"background": "transparent", "ci_colors": [], "colors": ["#0343df", "#e50000", "#929591", "#ffff14"], "dot_opacity": "1", "font_family": "Roboto,Helvetica,Arial,sans-serif", "foreground": "rgba(0, 0, 0, .87)", "foreground_strong": "rgba(0, 0, 0, 1)", "foreground_subtle": "rgba(0, 0, 0, .54)", "guide_stroke_color": "black", "guide_stroke_dasharray": "4,4", "label_font_family": "Roboto,Helvetica,Arial,sans-serif", "label_font_size": 14, "legend_font_family": "Roboto,Helvetica,Arial,sans-serif", "legend_font_size": 14, "major_guide_stroke_color": "black", "major_guide_stroke_dasharray": "6,6", "major_label_font_family": "Roboto,Helvetica,Arial,sans-serif", "major_label_font_size": 10, "no_data_font_family": "Roboto,Helvetica,Arial,sans-serif", "no_data_font_size": 64, "opacity": ".7", "opacity_hover": ".8", "plot_background": "rgba(255, 255, 255, 1)", "stroke_opacity": ".8", "stroke_opacity_hover": ".9", "stroke_width": "1", "stroke_width_hover": "4", "title_font_family": "Roboto,Helvetica,Arial,sans-serif", "title_font_size": 16, "tooltip_font_family": "Roboto,Helvetica,Arial,sans-serif", "tooltip_font_size": 14, "transition": "150ms", "value_background": "rgba(229, 229, 229, 1)", "value_colors": [], "value_font_family": "Roboto,Helvetica,Arial,sans-serif", "value_font_size": 16, "value_label_font_family": "Roboto,Helvetica,Arial,sans-serif", "value_label_font_size": 10}, "title": "Example 1b average daily temperature", "tooltip_border_radius": 0, "tooltip_fancy_mode": true, "truncate_label": null, "truncate_legend": null, "width": 1200, "x_label_rotation": 300, "x_labels": ["2018-03-11", "2018-03-12", "2018-03-13", "2018-03-14", "2018-03-15"], "x_labels_major": null, "x_labels_major_count": null, "x_labels_major_every": null, "x_title": null, "xrange": null, "y_label_rotation": 0, "y_labels": null, "y_labels_major": null, "y_labels_major_count": null, "y_labels_major_every": null, "y_title": null, "zero": 0, "legends": ["Celcius"]}</script><script type="text/javascript" xlink:href="https://kozea.github.io/pygal.js/2.0.x/pygal-tooltips.min.js"/></defs><title>Example 1b average daily temperature</title><g class="graph line-graph vertical"><rect class="background" height="600" width="1200" x="0" y="0"/><g class="plot" transform="translate(144, 46)"><rect class="background" height="451.25386608210715" width="1035.6" x="0" y="0"/><g class="axis y always_show"><path class="line" d="M0.000000 451.253866 h1035.600000"/><g class="guides"><path class="guide line" d="M0.000000 435.692107 h1035.600000"/><text class="" x="-5" y="440.59210710799954">23.6</text><title>23.6</title></g><g class="guides"><path class="guide line" d="M0.000000 407.963916 h1035.600000"/><text class="" x="-5" y="412.8639156700203">23.8</text><title>23.8</title></g><g class="guides"><path class="major guide line" d="M0.000000 380.235724 h1035.600000"/><text class="major" x="-5" y="385.135724232041">24</text><title>24</title></g><g class="guides"><path class="guide line" d="M0.000000 352.507533 h1035.600000"/><text class="" x="-5" y="357.4075327940617">24.2</text><title>24.2</title></g><g class="guides"><path class="guide line" d="M0.000000 324.779341 h1035.600000"/><text class="" x="-5" y="329.67934135608243">24.4</text><title>24.4</title></g><g class="guides"><path class="guide line" d="M0.000000 297.051150 h1035.600000"/><text class="" x="-5" y="301.9511499181027">24.6</text><title>24.6</title></g><g class="guides"><path class="guide line" d="M0.000000 269.322958 h1035.600000"/><text class="" x="-5" y="274.2229584801234">24.8</text><title>24.8</title></g><g class="guides"><path class="major guide line" d="M0.000000 241.594767 h1035.600000"/><text class="major" x="-5" y="246.4947670421442">25</text><title>25</title></g><g class="guides"><path class="guide line" d="M0.000000 213.866576 h1035.600000"/><text class="" x="-5" y="218.76657560416487">25.2</text><title>25.2</title></g><g class="guides"><path class="guide line" d="M0.000000 186.138384 h1035.600000"/><text class="" x="-5" y="191.03838416618564">25.4</text><title>25.4</title></g><g class="guides"><path class="guide line" d="M0.000000 158.410193 h1035.600000"/><text class="" x="-5" y="163.31019272820586">25.6</text><title>25.6</title></g><g class="guides"><path class="guide line" d="M0.000000 130.682001 h1035.600000"/><text class="" x="-5" y="135.5820012902266">25.8</text><title>25.8</title></g><g class="guides"><path class="major guide line" d="M0.000000 102.953810 h1035.600000"/><text class="major" x="-5" y="107.85380985224734">26</text><title>26</title></g><g class="guides"><path class="guide line" d="M0.000000 75.225618 h1035.600000"/><text class="" x="-5" y="80.12561841426808">26.2</text><title>26.2</title></g><g class="guides"><path class="guide line" d="M0.000000 47.497427 h1035.600000"/><text class="" x="-5" y="52.39742697628875">26.4</text><title>26.4</title></g><g class="guides"><path class="guide line" d="M0.000000 19.769236 h1035.600000"/><text class="" x="-5" y="24.669235538308975">26.6</text><title>26.6</title></g></g><g class="axis x"><g class="guides"><path class="line" d="M19.915385 0.000000 v451.253866"/><text class="backwards" x="19.915384615384614" y="468.25386608210715" transform="rotate(300 19.915385 468.253866)">2018-03-11</text></g><g class="guides"><path class="guide line" d="M268.857692 0.000000 v451.253866"/><text class="backwards" x="268.8576923076923" y="468.25386608210715" transform="rotate(300 268.857692 468.253866)">2018-03-12</text></g><g class="guides"><path class="guide line" d="M517.800000 0.000000 v451.253866"/><text class="backwards" x="517.8" y="468.25386608210715" transform="rotate(300 517.800000 468.253866)">2018-03-13</text></g><g class="guides"><path class="guide line" d="M766.742308 0.000000 v451.253866"/><text class="backwards" x="766.7423076923076" y="468.25386608210715" transform="rotate(300 766.742308 468.253866)">2018-03-14</text></g><g class="guides"><path class="guide line" d="M1015.684615 0.000000 v451.253866"/><text class="backwards" x="1015.6846153846152" y="468.25386608210715" transform="rotate(300 1015.684615 468.253866)">2018-03-15</text></g></g><g class="series serie-0 color-0"><path class="line reactive nofill" d="M19.915385 8.677959 L20.911154 11.164571 21.906923 13.651111 22.902692 16.137506 23.898462 18.623683 24.894231 21.109569 25.890000 23.595092 26.885769 26.080180 27.881538 28.564759 28.877308 31.048758 29.873077 33.532103 30.868846 36.014722 31.864615 38.496542 32.860385 40.977490 33.856154 43.457495 34.851923 45.936483 35.847692 48.414382 36.843462 50.891119 37.839231 53.366622 38.835000 55.840818 39.830769 58.313634 40.826538 60.784997 41.822308 63.254836 42.818077 65.723078 43.813846 68.189649 44.809615 70.654478 45.805385 73.117491 46.801154 75.578616 47.796923 78.037781 48.792692 80.494913 49.788462 82.949938 50.784231 85.402786 51.780000 87.853382 52.775769 90.301655 53.771538 92.747532 54.767308 95.190939 55.763077 97.631806 56.758846 100.070058 57.754615 102.505624 58.750385 104.938430 59.746154 107.368404 60.741923 109.795474 61.737692 112.219567 62.733462 114.640610 63.729231 117.058530 64.725000 119.473256 65.720769 121.884714 66.716538 124.292832 67.712308 126.697537 68.708077 129.098756 69.703846 131.496418 70.699615 133.890449 71.695385 136.280776 72.691154 138.667328 73.686923 141.050032 74.682692 143.428814 75.678462 145.803602 76.674231 148.174324 77.670000 150.540908 78.665769 152.903279 79.661538 155.261367 80.657308 157.615097 81.653077 159.964399 82.648846 162.309198 83.644615 164.649423 84.640385 166.985000 85.636154 169.315858 86.631923 171.641923 87.627692 173.963123 88.623462 176.279385 89.619231 178.590637 90.615000 180.896807 91.610769 183.197820 92.606538 185.493606 93.602308 187.784090 94.598077 190.069202 95.593846 192.348867 96.589615 194.623014 97.585385 196.891570 98.581154 199.154462 99.576923 201.411617 100.572692 203.662963 101.568462 205.908428 102.564231 208.147939 103.560000 210.381422 104.555769 212.608806 105.551538 214.830018 106.547308 217.044985 107.543077 219.253635 108.538846 221.455895 109.534615 223.651693 110.530385 225.840955 111.526154 228.023609 112.521923 230.199584 113.517692 232.368805 114.513462 234.531200 115.509231 236.686697 116.505000 238.835224 117.500769 240.976706 118.496538 243.111073 119.492308 245.238251 120.488077 247.358168 121.483846 249.470751 122.479615 251.575928 123.475385 253.673625 124.471154 255.763770 125.466923 257.846291 126.462692 259.921116 127.458462 261.988170 128.454231 264.047382 129.450000 266.098680 130.445769 268.141990 131.441538 270.177240 132.437308 272.204358 133.433077 274.223270 134.428846 276.233904 135.424615 278.236188 136.420385 280.230048 137.416154 282.215413 138.411923 284.192210 139.407692 286.160366 140.403462 288.119808 141.399231 290.070464 142.395000 292.012261 143.390769 293.945126 144.386538 295.868988 145.382308 297.783773 146.378077 299.689409 147.373846 301.585823 148.369615 303.472943 149.365385 305.350695 150.361154 307.219008 151.356923 309.077808 152.352692 310.927024 153.348462 312.766582 154.344231 314.596410 155.340000 316.416435 156.335769 318.226585 157.331538 320.026786 158.327308 321.816968 159.323077 323.597056 160.318846 325.366978 161.314615 327.126662 162.310385 328.876034 163.306154 330.615023 164.301923 332.343556 165.297692 334.061560 166.293462 335.768962 167.289231 337.465690 168.285000 339.151672 169.280769 340.826834 170.276538 342.491104 171.272308 344.144410 172.268077 345.786678 173.263846 347.417837 174.259615 349.037813 175.255385 350.646535 176.251154 352.243928 177.246923 353.829922 178.242692 355.404442 179.238462 356.967417 180.234231 358.518775 181.230000 360.058441 182.225769 361.586344 183.221538 363.102411 184.217308 364.606569 185.213077 366.098747 186.208846 367.578871 187.204615 369.046868 188.200385 370.502666 189.196154 371.946193 190.191923 373.377375 191.187692 374.796141 192.183462 376.202417 193.179231 377.596131 194.175000 378.977211 195.170769 380.345583 196.166538 381.701176 197.162308 383.043915 198.158077 384.373730 199.153846 385.690547 200.149615 386.994294 201.145385 388.284898 202.141154 389.562286 203.136923 390.826386 204.132692 392.077125 205.128462 393.314431 206.124231 394.538230 207.120000 395.748451 208.115769 396.945021 209.111538 398.127867 210.107308 399.296917 211.103077 400.452097 212.098846 401.593336 213.094615 402.720561 214.090385 403.833698 215.086154 404.932676 216.081923 406.017422 217.077692 407.087863 218.073462 408.143927 219.069231 409.185541 220.065000 410.212632 221.060769 411.225128 222.056538 412.222956 223.052308 413.206043 224.048077 414.174318 225.043846 415.127707 226.039615 416.066138 227.035385 416.989537 228.031154 417.897834 229.026923 418.790954 230.022692 419.668825 231.018462 420.531375 232.014231 421.378531 233.010000 422.210221 234.005769 423.026371 235.001538 423.826910 235.997308 424.611764 236.993077 425.380861 237.988846 426.134128 238.984615 426.871494 239.980385 427.592884 240.976154 428.298227 241.971923 428.987450 242.967692 429.660480 243.963462 430.317245 244.959231 430.957672 245.955000 431.581688 246.950769 432.189221 247.946538 432.780199 248.942308 433.354548 249.938077 433.912196 250.933846 434.453070 251.929615 434.977098 252.925385 435.484208 253.921154 435.974326 254.916923 436.447380 255.912692 436.903297 256.908462 437.342005 257.904231 437.763431 258.900000 438.167503 259.895769 438.554147 260.891538 438.923292 261.887308 439.274864 262.883077 439.608791 263.878846 439.925001 264.874615 440.223421 265.870385 440.503978 266.866154 440.766599 267.861923 441.011213 268.857692 441.237745 269.853462 441.446158 270.849231 441.636539 271.845000 441.809014 272.840769 441.963704 273.836538 442.100733 274.832308 442.220223 275.828077 442.322298 276.823846 442.407080 277.819615 442.474693 278.815385 442.525259 279.811154 442.558901 280.806923 442.575743 281.802692 442.575907 282.798462 442.559516 283.794231 442.526694 284.790000 442.477563 285.785769 442.412245 286.781538 442.330865 287.777308 442.233545 288.773077 442.120408 289.768846 441.991577 290.764615 441.847175 291.760385 441.687325 292.756154 441.512149 293.751923 441.321772 294.747692 441.116315 295.743462 440.895902 296.739231 440.660655 297.735000 440.410699 298.730769 440.146155 299.726538 439.867146 300.722308 439.573796 301.718077 439.266228 302.713846 438.944564 303.709615 438.608927 304.705385 438.259441 305.701154 437.896228 306.696923 437.519411 307.692692 437.129114 308.688462 436.725459 309.684231 436.308569 310.680000 435.878568 311.675769 435.435577 312.671538 434.979721 313.667308 434.511121 314.663077 434.029902 315.658846 433.536185 316.654615 433.030094 317.650385 432.511753 318.646154 431.981283 319.641923 431.438808 320.637692 430.884450 321.633462 430.318334 322.629231 429.740581 323.625000 429.151315 324.620769 428.550658 325.616538 427.938734 326.612308 427.315665 327.608077 426.681575 328.603846 426.036587 329.599615 425.380823 330.595385 424.714406 331.591154 424.037459 332.586923 423.350106 333.582692 422.652469 334.578462 421.944671 335.574231 421.226836 336.570000 420.499086 337.565769 419.761543 338.561538 419.014332 339.557308 418.257575 340.553077 417.491395 341.548846 416.715914 342.544615 415.931257 343.540385 415.137545 344.536154 414.334903 345.531923 413.523452 346.527692 412.703316 347.523462 411.874617 348.519231 411.037480 349.515000 410.192025 350.510769 409.338378 351.506538 408.476660 352.502308 407.606994 353.498077 406.729505 354.493846 405.844313 355.489615 404.951543 356.485385 404.051317 357.481154 403.143759 358.476923 402.228990 359.472692 401.307136 360.468462 400.378317 361.464231 399.442657 362.460000 398.500280 363.455769 397.551308 364.451538 396.595863 365.447308 395.634070 366.443077 394.666051 367.438846 393.691928 368.434615 392.711826 369.430385 391.725866 370.426154 390.734173 371.421923 389.736867 372.417692 388.734074 373.413462 387.725916 374.409231 386.712515 375.405000 385.693994 376.400769 384.670478 377.396538 383.642088 378.392308 382.608947 379.388077 381.571179 380.383846 380.528906 381.379615 379.482252 382.375385 378.431338 383.371154 377.376290 384.366923 376.317228 385.362692 375.254277 386.358462 374.187559 387.354231 373.117197 388.350000 372.043314 389.345769 370.966034 390.341538 369.885478 391.337308 368.801770 392.333077 367.715034 393.328846 366.625391 394.324615 365.532965 395.320385 364.437879 396.316154 363.340256 397.311923 362.240218 398.307692 361.137890 399.303462 360.033393 400.299231 358.926850 401.295000 357.818385 402.290769 356.708121 403.286538 355.596180 404.282308 354.482686 405.278077 353.367761 406.273846 352.251529 407.269615 351.134112 408.265385 350.015634 409.261154 348.896216 410.256923 347.775983 411.252692 346.655057 412.248462 345.533562 413.244231 344.411619 414.240000 343.289353 415.235769 342.166885 416.231538 341.044340 417.227308 339.921840 418.223077 338.799507 419.218846 337.677466 420.214615 336.555838 421.210385 335.434747 422.206154 334.314316 423.201923 333.194668 424.197692 332.075925 425.193462 330.958212 426.189231 329.841649 427.185000 328.726362 428.180769 327.612472 429.176538 326.500102 430.172308 325.389376 431.168077 324.280416 432.163846 323.173346 433.159615 322.068288 434.155385 320.965366 435.151154 319.864702 436.146923 318.766419 437.142692 317.670640 438.138462 316.577488 439.134231 315.487087 440.130000 314.399558 441.125769 313.315026 442.121538 312.233612 443.117308 311.155441 444.113077 310.080635 445.108846 309.009316 446.104615 307.941608 447.100385 306.877635 448.096154 305.817517 449.091923 304.761380 450.087692 303.709345 451.083462 302.661536 452.079231 301.618076 453.075000 300.579087 454.070769 299.544693 455.066538 298.515016 456.062308 297.490180 457.058077 296.470307 458.053846 295.455521 459.049615 294.445944 460.045385 293.441699 461.041154 292.442909 462.036923 291.449698 463.032692 290.462188 464.028462 289.480502 465.024231 288.504763 466.020000 287.535095 467.015769 286.571619 468.011538 285.614459 469.007308 284.663739 470.003077 283.719580 470.998846 282.782106 471.994615 281.851440 472.990385 280.927705 473.986154 280.011023 474.981923 279.101518 475.977692 278.199313 476.973462 277.304531 477.969231 276.417294 478.965000 275.537726 479.960769 274.665949 480.956538 273.802087 481.952308 272.946262 482.948077 272.098598 483.943846 271.259217 484.939615 270.428242 485.935385 269.605797 486.931154 268.792004 487.926923 267.986986 488.922692 267.190866 489.918462 266.403767 490.914231 265.625813 491.910000 264.857126 492.905769 264.097828 493.901538 263.348044 494.897308 262.607896 495.893077 261.877506 496.888846 261.156999 497.884615 260.446496 498.880385 259.746121 499.876154 259.055997 500.871923 258.376246 501.867692 257.706992 502.863462 257.048358 503.859231 256.400466 504.855000 255.763440 505.850769 255.137403 506.846538 254.522477 507.842308 253.918785 508.838077 253.326451 509.833846 252.745597 510.829615 252.176347 511.825385 251.618822 512.821154 251.073147 513.816923 250.539445 514.812692 250.017837 515.808462 249.508448 516.804231 249.011399 517.800000 248.526815 518.795769 248.054785 519.791538 247.595268 520.787308 247.148191 521.783077 246.713480 522.778846 246.291060 523.774615 245.880860 524.770385 245.482804 525.766154 245.096819 526.761923 244.722831 527.757692 244.360767 528.753462 244.010552 529.749231 243.672114 530.745000 243.345378 531.740769 243.030271 532.736538 242.726719 533.732308 242.434649 534.728077 242.153985 535.723846 241.884656 536.719615 241.626587 537.715385 241.379704 538.711154 241.143934 539.706923 240.919203 540.702692 240.705437 541.698462 240.502563 542.694231 240.310506 543.690000 240.129194 544.685769 239.958552 545.681538 239.798507 546.677308 239.648984 547.673077 239.509911 548.668846 239.381214 549.664615 239.262818 550.660385 239.154651 551.656154 239.056637 552.651923 238.968705 553.647692 238.890779 554.643462 238.822787 555.639231 238.764654 556.635000 238.716307 557.630769 238.677673 558.626538 238.648676 559.622308 238.629244 560.618077 238.619303 561.613846 238.618780 562.609615 238.627600 563.605385 238.645690 564.601154 238.672975 565.596923 238.709384 566.592692 238.754840 567.588462 238.809272 568.584231 238.872605 569.580000 238.944766 570.575769 239.025680 571.571538 239.115274 572.567308 239.213475 573.563077 239.320209 574.558846 239.435401 575.554615 239.558978 576.550385 239.690867 577.546154 239.830994 578.541923 239.979285 579.537692 240.135666 580.533462 240.300064 581.529231 240.472405 582.525000 240.652615 583.520769 240.840620 584.516538 241.036348 585.512308 241.239723 586.508077 241.450673 587.503846 241.669123 588.499615 241.895000 589.495385 242.128231 590.491154 242.368740 591.486923 242.616456 592.482692 242.871304 593.478462 243.133210 594.474231 243.402100 595.470000 243.677902 596.465769 243.960540 597.461538 244.249943 598.457308 244.546035 599.453077 244.848742 600.448846 245.157993 601.444615 245.473712 602.440385 245.795825 603.436154 246.124260 604.431923 246.458943 605.427692 246.799799 606.423462 247.146755 607.419231 247.499737 608.415000 247.858672 609.410769 248.223486 610.406538 248.594105 611.402308 248.970456 612.398077 249.352464 613.393846 249.740056 614.389615 250.133159 615.385385 250.531698 616.381154 250.935600 617.376923 251.344791 618.372692 251.759198 619.368462 252.178746 620.364231 252.603363 621.360000 253.032973 622.355769 253.467504 623.351538 253.906883 624.347308 254.351034 625.343077 254.799884 626.338846 255.253361 627.334615 255.711389 628.330385 256.173896 629.326154 256.640807 630.321923 257.112049 631.317692 257.587548 632.313462 258.067230 633.309231 258.551023 634.305000 259.038851 635.300769 259.530641 636.296538 260.026320 637.292308 260.525814 638.288077 261.029049 639.283846 261.535952 640.279615 262.046448 641.275385 262.560464 642.271154 263.077926 643.266923 263.598761 644.262692 264.122895 645.258462 264.650253 646.254231 265.180764 647.250000 265.714351 648.245769 266.250943 649.241538 266.790465 650.237308 267.332844 651.233077 267.878005 652.228846 268.425876 653.224615 268.976382 654.220385 269.529449 655.216154 270.085005 656.211923 270.642975 657.207692 271.203285 658.203462 271.765862 659.199231 272.330632 660.195000 272.897522 661.190769 273.466457 662.186538 274.037364 663.182308 274.610169 664.178077 275.184799 665.173846 275.761180 666.169615 276.339237 667.165385 276.918898 668.161154 277.500089 669.156923 278.082736 670.152692 278.666765 671.148462 279.252102 672.144231 279.838674 673.140000 280.426407 674.135769 281.015228 675.131538 281.605062 676.127308 282.195836 677.123077 282.787477 678.118846 283.379910 679.114615 283.973061 680.110385 284.566858 681.106154 285.161226 682.101923 285.756091 683.097692 286.351381 684.093462 286.947021 685.089231 287.542937 686.085000 288.139056 687.080769 288.735304 688.076538 289.331607 689.072308 289.927892 690.068077 290.524085 691.063846 291.120112 692.059615 291.715899 693.055385 292.311374 694.051154 292.906461 695.046923 293.501087 696.042692 294.095180 697.038462 294.688664 698.034231 295.281466 699.030000 295.873513 700.025769 296.464730 701.021538 297.055045 702.017308 297.644382 703.013077 298.232670 704.008846 298.819833 705.004615 299.405798 706.000385 299.990492 706.996154 300.573841 707.991923 301.155770 708.987692 301.736207 709.983462 302.315078 710.979231 302.892308 711.975000 303.467825 712.970769 304.041554 713.966538 304.613421 714.962308 305.183354 715.958077 305.751278 716.953846 306.317119 717.949615 306.880805 718.945385 307.442260 719.941154 308.001412 720.936923 308.558187 721.932692 309.112510 722.928462 309.664309 723.924231 310.213510 724.920000 310.760038 725.915769 311.303820 726.911538 311.844783 727.907308 312.382853 728.903077 312.917955 729.898846 313.450017 730.894615 313.978965 731.890385 314.504724 732.886154 315.027221 733.881923 315.546383 734.877692 316.062135 735.873462 316.574405 736.869231 317.083117 737.865000 317.588199 738.860769 318.089577 739.856538 318.587177 740.852308 319.080926 741.848077 319.570749 742.843846 320.056573 743.839615 320.538325 744.835385 321.015930 745.831154 321.489314 746.826923 321.958405 747.822692 322.423128 748.818462 322.883410 749.814231 323.339177 750.810000 323.790355 751.805769 324.236871 752.801538 324.678650 753.797308 325.115619 754.793077 325.547705 755.788846 325.974834 756.784615 326.396931 757.780385 326.813924 758.776154 327.225738 759.771923 327.632300 760.767692 328.033536 761.763462 328.429372 762.759231 328.819735 763.755000 329.204551 764.750769 329.583747 765.746538 329.957247 766.742308 330.324980 767.738077 330.686886 768.733846 331.042974 769.729615 331.393267 770.725385 331.737789 771.721154 332.076561 772.716923 332.409609 773.712692 332.736955 774.708462 333.058622 775.704231 333.374634 776.700000 333.685015 777.695769 333.989788 778.691538 334.288976 779.687308 334.582602 780.683077 334.870690 781.678846 335.153263 782.674615 335.430345 783.670385 335.701959 784.666154 335.968128 785.661923 336.228876 786.657692 336.484225 787.653462 336.734201 788.649231 336.978825 789.645000 337.218121 790.640769 337.452113 791.636538 337.680823 792.632308 337.904276 793.628077 338.122495 794.623846 338.335502 795.619615 338.543322 796.615385 338.745978 797.611154 338.943492 798.606923 339.135889 799.602692 339.323192 800.598462 339.505425 801.594231 339.682609 802.590000 339.854770 803.585769 340.021930 804.581538 340.184113 805.577308 340.341341 806.573077 340.493639 807.568846 340.641030 808.564615 340.783537 809.560385 340.921184 810.556154 341.053993 811.551923 341.181989 812.547692 341.305194 813.543462 341.423633 814.539231 341.537327 815.535000 341.646302 816.530769 341.750579 817.526538 341.850183 818.522308 341.945137 819.518077 342.035463 820.513846 342.121187 821.509615 342.202330 822.505385 342.278917 823.501154 342.350970 824.496923 342.418514 825.492692 342.481570 826.488462 342.540164 827.484231 342.594317 828.480000 342.644055 829.475769 342.689399 830.471538 342.730373 831.467308 342.767001 832.463077 342.799305 833.458846 342.827311 834.454615 342.851039 835.450385 342.870515 836.446154 342.885762 837.441923 342.896802 838.437692 342.903659 839.433462 342.906357 840.429231 342.904919 841.425000 342.899368 842.420769 342.889728 843.416538 342.876021 844.412308 342.858272 845.408077 342.836504 846.403846 342.810740 847.399615 342.781004 848.395385 342.747318 849.391154 342.709707 850.386923 342.668193 851.382692 342.622800 852.378462 342.573551 853.374231 342.520470 854.370000 342.463580 855.365769 342.402905 856.361538 342.338467 857.357308 342.270291 858.353077 342.198399 859.348846 342.122815 860.344615 342.043562 861.340385 341.960664 862.336154 341.874144 863.331923 341.784025 864.327692 341.690331 865.323462 341.593085 866.319231 341.492311 867.315000 341.388031 868.310769 341.280270 869.306538 341.169050 870.302308 341.054395 871.298077 340.936328 872.293846 340.814873 873.289615 340.690054 874.285385 340.561892 875.281154 340.430413 876.276923 340.295638 877.272692 340.157592 878.268462 340.016298 879.264231 339.871779 880.260000 339.724059 881.255769 339.573161 882.251538 339.419108 883.247308 339.261924 884.243077 339.101631 885.238846 338.938255 886.234615 338.771817 887.230385 338.602341 888.226154 338.429851 889.221923 338.254370 890.217692 338.075921 891.213462 337.894528 892.209231 337.710214 893.205000 337.523003 894.200769 337.332917 895.196538 337.139980 896.192308 336.944215 897.188077 336.745647 898.183846 336.544298 899.179615 336.340191 900.175385 336.133351 901.171154 335.923799 902.166923 335.711561 903.162692 335.496658 904.158462 335.279115 905.154231 335.058955 906.150000 334.836201 907.145769 334.610877 908.141538 334.383005 909.137308 334.152610 910.133077 333.919714 911.128846 333.684342 912.124615 333.446515 913.120385 333.206259 914.116154 332.963596 915.111923 332.718549 916.107692 332.471142 917.103462 332.221398 918.099231 331.969341 919.095000 331.714994 920.090769 331.458380 921.086538 331.199522 922.082308 330.938445 923.078077 330.675172 924.073846 330.409725 925.069615 330.142128 926.065385 329.872405 927.061154 329.600579 928.056923 329.326673 929.052692 329.050710 930.048462 328.772715 931.044231 328.492710 932.040000 328.210719 933.035769 327.926764 934.031538 327.640871 935.027308 327.353061 936.023077 327.063358 937.018846 326.771786 938.014615 326.478368 939.010385 326.183128 940.006154 325.886088 941.001923 325.587272 941.997692 325.286703 942.993462 324.984405 943.989231 324.680401 944.985000 324.374715 945.980769 324.067370 946.976538 323.758389 947.972308 323.447796 948.968077 323.135613 949.963846 322.821865 950.959615 322.506575 951.955385 322.189766 952.951154 321.871461 953.946923 321.551684 954.942692 321.230459 955.938462 320.907808 956.934231 320.583755 957.930000 320.258323 958.925769 319.931535 959.921538 319.603416 960.917308 319.273989 961.913077 318.943276 962.908846 318.611301 963.904615 318.278087 964.900385 317.943659 965.896154 317.608039 966.891923 317.271250 967.887692 316.933317 968.883462 316.594261 969.879231 316.254108 970.875000 315.912879 971.870769 315.570599 972.866538 315.227291 973.862308 314.882978 974.858077 314.537684 975.853846 314.191431 976.849615 313.844244 977.845385 313.496145 978.841154 313.147159 979.836923 312.797308 980.832692 312.446615 981.828462 312.095105 982.824231 311.742800 983.820000 311.389725 984.815769 311.035901 985.811538 310.681353 986.807308 310.326104 987.803077 309.970177 988.798846 309.613596 989.794615 309.256384 990.790385 308.898564 991.786154 308.540161 992.781923 308.181196 993.777692 307.821694 994.773462 307.461678 995.769231 307.101171 996.765000 306.740197 997.760769 306.378779 998.756538 306.016940 999.752308 305.654704 1000.748077 305.292094 1001.743846 304.929134 1002.739615 304.565846 1003.735385 304.202255 1004.731154 303.838383 1005.726923 303.474254 1006.722692 303.109891 1007.718462 302.745319 1008.714231 302.380559 1009.710000 302.015636 1010.705769 301.650572 1011.701538 301.285392 1012.697308 300.920118 1013.693077 300.554774 1014.688846 300.189383 1015.684615 299.823969"/></g></g><g class="titles"><text class="title plot_title" x="600.0" y="26">Example 1b average daily temperature</text></g><g class="plot overlay" transform="translate(144, 46)"><g class="series serie-0 color-0"><g class="ci"><path class="nofill reactive" d="M19.915385 -52.324062 L26.915385 -52.324062 M19.915385 -52.324062 L12.915385 -52.324062 M19.915385 -52.324062 L19.915385 73.839209 L26.915385 73.839209 M19.915385 73.839209 L12.915385 73.839209"/></g><g class="dots"><circle class="dot reactive tooltip-trigger" cx="19.915384615384614" cy="8.677958963117476" r="2.5"/><desc class="value">26.68</desc><desc class="x ">19.915384615384614</desc><desc class="y ">8.677958963117476</desc><desc class="x_label">2018-03-11</desc></g><g class="ci"><path class="nofill reactive" d="M268.857692 90.476124 L275.857692 90.476124 M268.857692 90.476124 L261.857692 90.476124 M268.857692 90.476124 L268.857692 994.415165 L275.857692 994.415165 M268.857692 994.415165 L261.857692 994.415165"/></g><g class="dots"><circle class="dot reactive tooltip-trigger" cx="268.8576923076923" cy="441.2377453955958" r="2.5"/><desc class="value">23.56</desc><desc class="x top">268.8576923076923</desc><desc class="y top">441.2377453955958</desc><desc class="x_label">2018-03-12</desc></g><g class="ci"><path class="nofill reactive" d="M517.800000 -99.461988 L524.800000 -99.461988 M517.800000 -99.461988 L510.800000 -99.461988 M517.800000 -99.461988 L517.800000 956.982106 L524.800000 956.982106 M517.800000 956.982106 L510.800000 956.982106"/></g><g class="dots"><circle class="dot reactive tooltip-trigger" cx="517.8" cy="248.5268149016391" r="2.5"/><desc class="value">24.95</desc><desc class="x top">517.8</desc><desc class="y top">248.5268149016391</desc><desc class="x_label">2018-03-13</desc></g><g class="ci"><path class="nofill reactive" d="M766.742308 -28.755099 L773.742308 -28.755099 M766.742308 -28.755099 L759.742308 -28.755099 M766.742308 -28.755099 L766.742308 1069.281281 L773.742308 1069.281281 M766.742308 1069.281281 L759.742308 1069.281281"/></g><g class="dots"><circle class="dot reactive tooltip-trigger" cx="766.7423076923076" cy="330.32497964367826" r="2.5"/><desc class="value">24.36</desc><desc class="x left top">766.7423076923076</desc><desc class="y left top">330.32497964367826</desc><desc class="x_label">2018-03-14</desc></g><g class="ci"><path class="nofill reactive" d="M1015.684615 -307.423423 L1022.684615 -307.423423 M1015.684615 -307.423423 L1008.684615 -307.423423 M1015.684615 -307.423423 L1015.684615 801.704234 L1022.684615 801.704234 M1015.684615 801.704234 L1008.684615 801.704234"/></g><g class="dots"><circle class="dot reactive tooltip-trigger" cx="1015.6846153846152" cy="299.82396906190104" r="2.5"/><desc class="value">24.58</desc><desc class="x left top">1015.6846153846152</desc><desc class="y left top">299.82396906190104</desc><desc class="x_label">2018-03-15</desc></g></g></g><g class="plot text-overlay" transform="translate(144, 46)"><g class="series serie-0 color-0"/></g><g class="plot tooltip-overlay" transform="translate(144, 46)"><g class="tooltip" style="opacity: 0" transform="translate(0 0)"><rect class="tooltip-box" height="0" rx="0" ry="0" width="0"/><g class="text"/></g></g><g class="legends" transform="translate(10, 56)"><g class="legend reactive activate-serie" id="activate-serie-0"><rect class="color-0 reactive" height="12" width="12" x="0.0" y="1.0"/><text x="17.0" y="11.2">Celcius</text></g></g><g class="legends" transform="translate(1190, 56)"/></g></svg>